SplineFontDB: 3.0
FontName: MJ-Italic
FullName: MJ-Italic
FamilyName: MJ
Weight: Normal
Copyright: Copyright (c) 2009-2010 Design Science, Inc.
Version: 3.0
ItalicAngle: 0
UnderlinePosition: -100
UnderlineWidth: 50
Ascent: 750
Descent: 250
InvalidEm: 0
sfntRevision: 0x00030000
LayerCount: 2
Layer: 0 0 "Back" 1
Layer: 1 0 "Fore" 0
XUID: [1021 555 1361428464 21842]
StyleMap: 0x0001
FSType: 0
OS2Version: 3
OS2_WeightWidthSlopeOnly: 0
OS2_UseTypoMetrics: 0
CreationTime: 1255375311
ModificationTime: 1520406840
PfmFamily: 81
TTFWeight: 400
TTFWidth: 5
LineGap: 0
VLineGap: 0
Panose: 0 0 0 0 0 0 0 0 0 0
OS2TypoAscent: 750
OS2TypoAOffset: 0
OS2TypoDescent: -250
OS2TypoDOffset: 0
OS2TypoLinegap: 0
OS2WinAscent: 750
OS2WinAOffset: 0
OS2WinDescent: 250
OS2WinDOffset: 0
HheadAscent: 750
HheadAOffset: 0
HheadDescent: -250
HheadDOffset: 0
OS2SubXSize: 650
OS2SubYSize: 700
OS2SubXOff: 0
OS2SubYOff: 140
OS2SupXSize: 650
OS2SupYSize: 700
OS2SupXOff: 0
OS2SupYOff: 480
OS2StrikeYSize: 49
OS2StrikeYPos: 258
OS2CapHeight: 680
OS2XHeight: 442
OS2Vendor: 'PfEd'
OS2CodePages: 2000008f.5e030000
OS2UnicodeRanges: 800000ef.1000eced.00000000.00000000
MarkAttachClasses: 1
DEI: 91125
LangName: 1033 "" "" "" "FontForge 2.0 : MJ-Italic" "" "Version 1.1" "" "" "" "" "" "" "" "Copyright (c) 2009-2010, Design Science, Inc. (<www.mathjax.org>),+AAoA-with Reserved Font Name MathJax_Main.+AAoACgAA-This Font Software is licensed under the SIL Open Font License, Version 1.1.+AAoA-This license available with a FAQ at:+AAoA-http://scripts.sil.org/OFL" "http://scripts.sil.org/OFL" "" "MJ" "Italic"
Encoding: UnicodeBmp
UnicodeInterp: none
NameList: AGL For New Fonts
DisplaySize: -48
AntiAlias: 1
FitToEm: 0
WinInfo: 38 38 12
BeginPrivate: 6
BlueValues 31 [-22 0 442 442 666 666 680 704]
OtherBlues 11 [-205 -204]
BlueScale 7 0.03963
BlueShift 1 0
StdHW 4 [50]
StdVW 4 [50]
EndPrivate
BeginChars: 65537 124

StartChar: .notdef
Encoding: 65536 -1 0
Width: 250
Flags: MW
HStem: 0 50<100 150 100 200> 483 50<100 150 100 100>
VStem: 50 50<50 50 50 483> 150 50<50 483 483 483>
LayerCount: 2
Fore
SplineSet
50 0 m 1
 50 533 l 1
 200 533 l 1
 200 0 l 1
 50 0 l 1
100 50 m 1
 150 50 l 1
 150 483 l 1
 100 483 l 1
 100 50 l 1
EndSplineSet
EndChar

StartChar: exclam
Encoding: 33 33 2
Width: 307
GlyphClass: 2
Flags: MW
HStem: 0 121<160 176> 696 20G<327.5 343.5>
VStem: 107 124<34.5 87> 184 43
LayerCount: 2
Fore
SplineSet
330 716 m 0xd0
 357 716 380 700 380 670 c 2
 380 659 l 1
 304 433 l 2
 263 308 228 205 227 204 c 0
 225 199 221 198 205 198 c 0
 189 198 184 199 184 207 c 0
 184 219 256 659 260 669 c 0
 267 686 280 699 297 708 c 0
 304 710 312 714 316 714 c 0
 320 715 325 716 330 716 c 0xd0
156 0 m 0
 129 0 107 18 107 51 c 0
 111 89 141 121 179 121 c 0
 209 121 231 102 231 72 c 0xe0
 231 38 196 0 156 0 c 0
EndSplineSet
EndChar

StartChar: quotedbl
Encoding: 34 34 3
Width: 514
GlyphClass: 2
Flags: MW
HStem: 573 121<268.5 274.5 465.5 471.5>
VStem: 214 127<615 624 624 633 615 640> 411 127<615 624 624 633 615 640>
LayerCount: 2
Fore
SplineSet
264 573 m 0
 234 573 214 590 214 620 c 0
 214 660 248 694 289 694 c 0
 320 694 341 667 341 633 c 2
 341 624 l 2
 341 606 341 602 339 591 c 0
 324 526 293 473 253 429 c 0
 240 414 218 393 204 383 c 0
 201 381 198 379 196 379 c 0
 191 379 176 394 176 401 c 0
 176 405 180 409 189 416 c 0
 232 451 268 498 287 547 c 0
 292 559 299 581 299 582 c 0
 299 583 285 573 264 573 c 0
461 573 m 0
 431 573 411 590 411 620 c 0
 411 660 445 694 486 694 c 0
 517 694 538 667 538 633 c 2
 538 624 l 2
 538 606 538 602 536 591 c 0
 521 526 490 473 450 429 c 0
 437 414 415 393 401 383 c 0
 398 381 395 379 393 379 c 0
 388 379 373 394 373 401 c 0
 373 405 377 409 386 416 c 0
 429 451 465 498 484 547 c 0
 489 559 496 581 496 582 c 0
 496 583 482 573 461 573 c 0
EndSplineSet
EndChar

StartChar: numbersign
Encoding: 35 35 4
Width: 818
GlyphClass: 2
Flags: MW
HStem: -194 21G<152 158.5 362 368.5> 133 40<207 285 207 207 351 495 131 330 561 651> 327 40<236.5 404 292 382 292 427 448 592 736 812> 674 20G<575 583.5 784.5 791>
VStem: 563 34<669 688>
LayerCount: 2
Fore
SplineSet
115 153 m 0
 115 163 123 168 131 173 c 1
 306 173 l 1
 344 250 l 2
 365 292 382 326 382 327 c 2
 281 327 l 2
 192 327 179 327 176 329 c 0
 168 332 164 340 164 347 c 0
 164 354 168 361 176 365 c 0
 179 367 185 367 292 367 c 2
 404 367 l 1
 563 688 l 2
 565 690 572 694 578 694 c 0
 589 694 599 682 597 670 c 0
 597 668 567 607 531 535 c 2
 448 367 l 1
 614 367 l 1
 773 688 l 2
 777 692 782 694 787 694 c 0
 795 694 808 686 808 675 c 0
 808 673 808 672 807 670 c 0
 807 668 773 599 732 517 c 2
 658 368 l 1
 736 367 l 1
 814 367 l 1
 821 362 828 357 828 347 c 0
 828 337 820 332 812 327 c 1
 637 327 l 1
 599 250 l 2
 578 208 561 174 561 173 c 2
 662 173 l 2
 772 173 767 173 773 168 c 0
 777 164 779 159 779 153 c 0
 779 147 777 142 773 138 c 0
 767 133 772 133 651 133 c 2
 540 133 l 1
 380 -188 l 2
 376 -192 371 -194 366 -194 c 0
 358 -194 345 -186 345 -175 c 0
 345 -173 345 -172 346 -170 c 0
 346 -168 376 -107 412 -35 c 2
 495 133 l 1
 330 133 l 1
 170 -188 l 2
 166 -192 161 -194 156 -194 c 0
 148 -194 135 -186 135 -175 c 0
 135 -173 135 -172 136 -170 c 0
 136 -168 170 -99 211 -17 c 2
 285 133 l 1
 207 133 l 1
 130 134 l 2
 121 138 115 144 115 153 c 0
592 327 m 2
 427 327 l 1
 389 250 l 2
 368 208 351 174 351 173 c 2
 516 173 l 1
 554 250 l 2
 575 292 592 326 592 327 c 2
EndSplineSet
EndChar

StartChar: percent
Encoding: 37 37 5
Width: 818
GlyphClass: 2
Flags: MW
HStem: -56 38<599 615.5 599 618.5> 310 37<697.5 717> 348 37<306 307> 607 37<581.5 612 571 621.5> 713 37<388.5 407>
VStem: 205 65<445 451 429.5 484> 434 45<621 624 624 642 594.5 649> 513 65<25 121.5> 742 46<193.5 241.5>
LayerCount: 2
Fore
SplineSet
827 750 m 0
 836 750 847 742 847 730 c 0
 847 728 846 727 846 725 c 0
 841 712 177 -51 176 -52 c 0
 173 -55 170 -56 166 -56 c 0
 155 -56 145 -45 145 -35 c 0
 145 -32 146 -30 147 -27 c 0
 155 -15 711 626 711 628 c 2
 701 624 l 2
 675 615 639 607 604 607 c 0
 559 607 527 619 494 634 c 2
 479 642 l 1
 479 624 l 2
 479 565 461 510 439 467 c 0
 409 406 367 364 323 350 c 0
 316 348 313 348 301 348 c 0
 289 348 285 348 279 350 c 0
 234 363 205 410 205 480 c 0
 205 488 205 496 206 502 c 0
 215 602 274 701 346 736 c 0
 361 745 375 750 394 750 c 0
 428 750 439 739 458 714 c 0
 492 670 536 644 606 644 c 0
 618 644 630 644 637 645 c 0
 701 654 762 688 802 732 c 0
 813 745 815 747 819 748 c 0
 822 749 824 750 827 750 c 0
434 627 m 0
 434 671 424 713 390 713 c 0
 387 713 384 713 381 712 c 0
 363 706 344 689 328 663 c 0
 313 639 303 611 288 550 c 0
 274 496 270 475 270 451 c 2
 270 443 l 2
 270 416 273 404 284 393 c 0
 291 386 295 384 306 385 c 0
 327 385 334 393 348 407 c 0
 389 446 421 518 432 594 c 0
 433 602 434 615 434 627 c 0
704 347 m 0
 764 347 788 288 788 222 c 0
 788 121 738 20 673 -31 c 0
 651 -48 629 -56 608 -56 c 0
 562 -56 536 -21 522 15 c 0
 516 34 513 54 513 76 c 0
 513 167 556 248 604 296 c 2
 627 318 l 1
 651 334 673 347 704 347 c 0
742 222 m 0
 742 261 735 310 699 310 c 0
 696 310 693 309 691 309 c 0
 665 302 637 271 620 227 c 0
 612 206 605 183 594 139 c 0
 581 87 578 66 578 42 c 0
 578 8 585 -18 613 -18 c 0
 618 -18 624 -18 628 -16 c 0
 651 -7 680 25 702 67 c 0
 723 108 742 165 742 222 c 0
EndSplineSet
EndChar

StartChar: ampersand
Encoding: 38 38 6
Width: 767
GlyphClass: 2
Flags: MW
HStem: -22 37<337.5 410 337.5 478.5> 242 93<577.5 581.5> 295 37<324 345> 432 37<353 373.5> 515 95<481 483 481 489> 674 20G<748.5 775> 679 37<420.5 437.5>
VStem: 127 90<163.5 169.5 108 193.5> 209 73<442.5 443 442.5 452> 386 44<394 419> 483 47<610 617 617 617> 688 47<318.5 332>
LayerCount: 2
Fore
SplineSet
626 300 m 0xd970
 626 268 600 242 563 242 c 0
 519 245 491 273 491 320 c 0
 494 358 507 378 531 403 c 0
 551 423 565 434 613 466 c 0
 666 502 704 534 732 590 c 0
 736 596 738 601 738 601 c 2
 738 602 737 602 736 602 c 0
 720 602 707 620 707 638 c 0
 707 668 733 694 764 694 c 0
 786 694 800 681 802 660 c 0
 802 652 802 649 799 638 c 0
 780 574 739 512 692 470 c 1
 688 467 l 1
 715 426 735 387 735 327 c 0
 735 310 734 291 733 282 c 0
 705 101 582 -22 375 -22 c 0
 274 -22 197 19 157 80 c 0
 137 110 127 146 127 181 c 0xdd70
 127 206 131 223 141 253 c 0
 156 298 178 338 207 374 c 2
 216 386 l 1
 212 406 209 420 209 444 c 0
 209 460 209 468 211 479 c 0
 229 595 314 699 405 714 c 0
 410 715 417 716 424 716 c 0
 491 716 530 666 530 601 c 0
 530 554 511 515 467 515 c 0
 445 515 427 529 427 553 c 0
 427 581 450 602 472 608 c 0
 475 609 479 610 481 610 c 2
 483 610 l 1
 483 617 l 1
 479 651 456 679 419 679 c 0
 379 679 345 635 328 603 c 0
 300 547 282 443 282 443 c 2x9af0
 282 442 330 469 371 469 c 0
 408 469 430 439 430 404 c 0
 430 373 413 343 396 324 c 0
 379 308 359 295 331 295 c 0
 305 295 276 307 256 322 c 0
 254 322 240 276 230 239 c 0
 220 201 217 181 217 158 c 0
 217 58 288 15 387 15 c 0
 433 15 473 22 507 34 c 0
 589 64 644 127 673 223 c 0
 684 259 688 283 688 317 c 0
 688 347 683 372 672 397 c 0
 666 411 650 437 647 437 c 0
 645 437 604 410 592 401 c 0
 560 377 543 356 538 332 c 0xbb70
 537 325 536 303 541 310 c 0
 548 324 568 335 587 335 c 0
 609 335 626 322 626 300 c 0xd970
335 332 m 0xb870
 370 332 386 376 386 412 c 0
 386 426 381 432 366 432 c 0
 340 432 322 418 306 402 c 0
 295 391 284 378 284 375 c 0
 284 374 286 370 287 366 c 0
 297 345 313 332 335 332 c 0xb870
EndSplineSet
EndChar

StartChar: quotesingle
Encoding: 39 39 7
Width: 307
GlyphClass: 2
Flags: MW
HStem: 573 121<304.5 310.5>
VStem: 250 127<615 624 624 633 615 640>
LayerCount: 2
Fore
SplineSet
300 573 m 0
 270 573 250 590 250 620 c 0
 250 660 284 694 325 694 c 0
 356 694 377 667 377 633 c 2
 377 624 l 2
 377 606 377 602 375 591 c 0
 362 534 332 481 300 441 c 0
 283 420 252 391 238 382 c 0
 235 380 233 379 231 379 c 0
 226 379 213 395 213 401 c 0
 213 405 217 409 225 416 c 0
 268 451 304 498 323 547 c 0
 328 558 335 581 335 582 c 0
 335 583 321 573 300 573 c 0
EndSplineSet
EndChar

StartChar: parenleft
Encoding: 40 40 8
Width: 409
GlyphClass: 2
Flags: MW
VStem: 144 64<-20.5 14 -50.5 64.5>
LayerCount: 2
Fore
SplineSet
241 -250 m 1
 180 -189 144 -80 144 39 c 0
 144 90 150 146 162 205 c 0
 194 362 260 509 346 617 c 0
 387 666 438 717 487 750 c 1
 499 750 l 2
 513 750 517 749 517 740 c 0
 517 736 517 736 495 716 c 0
 421 649 353 551 307 442 c 0
 258 326 221 182 210 61 c 0
 209 49 208 25 208 3 c 0
 208 -104 227 -167 268 -232 c 0
 271 -236 272 -239 272 -242 c 0
 272 -248 266 -250 252 -250 c 2
 241 -250 l 1
EndSplineSet
EndChar

StartChar: parenright
Encoding: 41 41 9
Width: 409
GlyphClass: 2
Flags: MW
VStem: 326 64<486 520.5 435.5 550.5>
LayerCount: 2
Fore
SplineSet
35 -250 m 2
 21 -250 17 -249 17 -240 c 0
 17 -236 17 -236 39 -216 c 0
 113 -149 181 -51 227 58 c 0
 276 174 313 318 324 440 c 0
 325 452 326 475 326 497 c 0
 326 604 307 667 266 732 c 0
 264 736 262 739 262 740 c 0
 262 743 264 747 267 749 c 0
 269 749 273 750 281 750 c 2
 293 750 l 1
 354 689 390 580 390 461 c 0
 390 410 384 354 372 295 c 0
 340 138 274 -9 188 -116 c 0
 147 -167 96 -217 47 -250 c 1
 35 -250 l 2
EndSplineSet
EndChar

StartChar: asterisk
Encoding: 42 42 10
Width: 511
GlyphClass: 2
Flags: MW
HStem: 598 60
LayerCount: 2
Fore
SplineSet
239 616 m 0
 239 636 261 658 282 658 c 0
 284 658 286 657 288 657 c 0
 293 656 293 656 335 615 c 2
 378 573 l 1
 391 647 l 2
 404 729 404 728 413 737 c 0
 418 742 427 747 434 749 c 0
 436 749 441 750 445 750 c 0
 458 749 468 741 469 728 c 0
 469 717 419 573 420 573 c 2
 481 613 l 2
 514 635 543 654 546 655 c 0
 550 657 554 658 558 658 c 0
 572 658 584 645 584 631 c 0
 584 618 576 605 562 598 c 0
 560 597 431 536 428 536 c 0
 426 534 428 533 479 502 c 0
 508 485 533 469 534 468 c 0
 538 464 539 457 539 450 c 0
 537 430 515 412 497 412 c 0
 493 412 489 412 486 414 c 0
 484 415 464 434 442 456 c 0
 408 489 400 496 400 494 c 0
 399 493 394 460 387 420 c 0
 374 339 374 341 365 332 c 0
 359 326 349 320 336 320 c 2
 331 320 l 2
 319 320 309 331 309 343 c 0
 309 344 320 379 334 420 c 2
 359 496 l 2
 358 496 234 414 234 414 c 2
 230 412 225 411 221 411 c 0
 206 411 195 421 195 439 c 0
 196 446 196 449 199 454 c 0
 206 466 205 466 283 502 c 2
 353 534 l 1
 300 566 l 2
 269 585 246 600 244 602 c 0
 241 606 239 611 239 616 c 0
EndSplineSet
EndChar

StartChar: plus
Encoding: 43 43 11
Width: 767
GlyphClass: 2
Flags: MW
HStem: 230 40<225 431 293 421 293 462 541.5 599>
VStem: 502 36
LayerCount: 2
Fore
SplineSet
374 -57 m 0
 363 -57 355 -47 355 -37 c 0
 355 -34 369 24 388 99 c 2
 421 230 l 1
 288 230 l 2
 162 230 155 230 152 232 c 0
 145 235 139 241 139 250 c 0
 139 259 145 265 152 268 c 0
 155 270 162 270 293 270 c 2
 431 270 l 1
 465 407 l 2
 489 504 500 545 502 548 c 0
 504 553 513 557 519 557 c 0
 530 557 538 547 538 538 c 0
 538 535 476 284 472 272 c 0
 472 270 479 270 604 270 c 0
 730 270 737 270 741 268 c 0
 747 265 753 259 753 250 c 0
 753 241 747 235 741 232 c 0
 737 230 730 230 599 230 c 2
 462 230 l 1
 461 226 l 2
 461 224 394 -42 392 -47 c 0
 389 -53 381 -57 374 -57 c 0
EndSplineSet
EndChar

StartChar: comma
Encoding: 44 44 12
Width: 307
GlyphClass: 2
Flags: MW
HStem: -194 21G<85 92> 0 121<141 197>
VStem: 188 44<6.5 75.5>
LayerCount: 2
Fore
SplineSet
188 7 m 0
 188 8 175 0 156 0 c 0
 126 0 106 16 106 46 c 0
 106 85 136 112 167 120 c 0
 170 120 176 121 180 121 c 0
 214 121 232 97 232 54 c 0
 232 42 231 30 230 24 c 0
 216 -41 185 -98 147 -141 c 0
 129 -162 96 -194 88 -194 c 0
 82 -194 69 -175 69 -171 c 0
 69 -167 73 -164 80 -158 c 0
 92 -149 112 -128 124 -114 c 0
 153 -80 172 -44 184 -6 c 0
 186 0 188 6 188 7 c 0
EndSplineSet
EndChar

StartChar: hyphen
Encoding: 45 45 13
Width: 358
GlyphClass: 2
Flags: MW
HStem: 180 71<148 268>
VStem: 84 257<188 243.5>
LayerCount: 2
Fore
SplineSet
334 251 m 2
 337 248 341 246 341 241 c 0
 341 235 329 190 327 186 c 0
 324 180 331 180 205 180 c 0
 91 180 91 181 88 183 c 0
 86 185 84 186 84 190 c 0
 84 195 86 203 90 219 c 0
 97 248 96 244 103 251 c 1
 334 251 l 2
EndSplineSet
EndChar

StartChar: period
Encoding: 46 46 14
Width: 307
GlyphClass: 2
Flags: MW
HStem: 0 121<168.5 176>
VStem: 107 124<52.5 58.5>
LayerCount: 2
Fore
SplineSet
156 0 m 0
 129 0 107 18 107 50 c 0
 107 67 114 79 122 91 c 0
 135 106 156 121 181 121 c 0
 209 121 231 102 231 72 c 0
 231 33 196 0 156 0 c 0
EndSplineSet
EndChar

StartChar: slash
Encoding: 47 47 15
Width: 511
GlyphClass: 2
Flags: W
LayerCount: 2
Fore
SplineSet
596 750 m 0
 605 750 617 742 617 730 c 0
 617 729 616 728 616 726 c 0
 615 722 60 -235 55 -242 c 0
 52 -246 45 -250 40 -250 c 0
 35 -250 28 -247 25 -243 c 0
 21 -240 19 -231 20 -226 c 0
 21 -222 576 735 581 742 c 0
 583 746 590 750 596 750 c 0
EndSplineSet
EndChar

StartChar: zero
Encoding: 48 48 16
Width: 511
GlyphClass: 2
Flags: MW
HStem: -21 36<240 261> 628 37<402 412.5>
VStem: 110 77<72.5 163.5> 487 75<530 544 467 568>
LayerCount: 2
Fore
SplineSet
414 665 m 2
 521 665 562 598 562 490 c 0
 562 444 553 391 534 318 c 0
 505 201 474 130 425 69 c 0
 392 28 346 -3 300 -15 c 0
 280 -20 271 -21 251 -21 c 0
 229 -21 219 -20 202 -15 c 0
 138 8 112 60 110 144 c 0
 110 183 112 209 122 258 c 0
 139 341 164 424 189 479 c 0
 215 535 252 586 287 614 c 0
 321 642 363 660 402 665 c 1
 414 665 l 2
187 98 m 0
 187 47 220 15 260 15 c 0
 270 15 280 17 291 21 c 0
 319 31 345 53 365 83 c 0
 387 117 407 181 446 338 c 0
 475 455 487 513 487 547 c 0
 487 589 464 618 433 627 c 0
 428 628 417 628 408 628 c 0
 366 628 329 596 311 569 c 0
 287 536 269 479 230 322 c 0
 208 235 196 182 190 143 c 0
 188 128 187 111 187 98 c 0
EndSplineSet
EndChar

StartChar: one
Encoding: 49 49 17
Width: 511
GlyphClass: 2
Flags: MW
HStem: 0 46<134.5 146.5 388 411.5> 491 47 646 20G<452.5 457.5>
LayerCount: 2
Fore
SplineSet
248 491 m 0
 234 491 228 492 228 502 c 0
 228 506 234 528 236 532 c 0
 237 536 240 537 256 538 c 0
 277 540 293 543 314 552 c 0
 357 570 403 608 437 654 c 0
 441 659 445 664 446 664 c 0
 448 665 451 666 454 666 c 0
 461 666 468 664 468 658 c 0
 468 652 461 619 395 359 c 0
 354 195 321 60 321 59 c 0
 321 54 323 52 328 51 c 0
 337 48 352 47 388 46 c 2
 422 46 l 2
 424 43 428 40 428 35 c 0
 428 29 423 9 421 5 c 0
 418 2 418 0 405 0 c 0
 363 0 326 2 263 2 c 0
 202 2 166 0 127 0 c 0
 117 0 110 3 110 11 c 0
 110 14 116 37 118 40 c 0
 120 45 123 46 146 46 c 0
 180 46 210 48 221 51 c 0
 226 52 231 56 235 61 c 0
 237 64 242 81 295 295 c 2
 353 526 l 2
 353 527 310 497 248 491 c 0
EndSplineSet
EndChar

StartChar: two
Encoding: 50 50 18
Width: 511
GlyphClass: 2
Flags: MW
HStem: -22 86<350 373 350 373> 53 37<167.5 187> 336 37<214 216 216 219> 629 37<385.5 413.5>
VStem: 76 45<-16 -11.5> 159 45<396 404 404 408 390 413> 297 47 307 37<493 498> 466 85<530 546 489 564> 475 46
LayerCount: 2
Fore
SplineSet
216 336 m 2xbe
 183 336 159 361 159 396 c 2
 159 404 l 2
 159 422 161 433 170 460 c 0
 188 515 217 563 254 600 c 0
 276 622 294 636 318 647 c 0
 344 660 363 666 395 666 c 0
 488 666 551 595 551 497 c 0
 551 481 549 464 545 446 c 0
 537 404 517 370 482 333 c 0
 447 298 404 268 327 223 c 0
 290 202 279 195 264 184 c 0
 232 162 202 132 179 101 c 0
 174 96 171 91 171 91 c 2
 171 90 174 90 177 90 c 0x7e80
 197 90 228 86 264 78 c 0
 320 67 340 64 366 64 c 0
 380 64 385 64 390 65 c 0
 427 76 460 112 475 156 c 0
 480 172 480 173 495 173 c 2
 518 173 l 1
 524 167 526 168 521 152 c 0
 506 98 478 49 446 19 c 0
 417 -8 386 -22 353 -22 c 2
 350 -22 l 2xbc40
 321 -20 300 -12 259 15 c 0
 224 39 210 46 193 50 c 0
 185 52 178 53 172 53 c 0x7c40
 163 53 156 50 151 45 c 0
 140 35 133 22 125 -2 c 0
 123 -8 121 -15 121 -16 c 0
 119 -21 116 -22 98 -22 c 2
 82 -22 l 2
 80 -20 76 -17 76 -13 c 0
 76 -10 77 -6 80 2 c 0
 108 98 178 185 274 242 c 0
 331 275 373 310 405 350 c 0
 436 390 451 424 460 483 c 0
 464 504 466 522 466 538 c 0
 466 590 438 629 389 629 c 0
 382 629 374 628 366 626 c 0
 308 614 250 552 220 468 c 0
 208 436 204 417 204 399 c 0
 204 381 206 373 222 373 c 0
 269 376 294 438 306 480 c 0
 307 484 307 489 307 493 c 0xbd80
 307 503 305 512 300 522 c 0
 296 529 295 532 297 535 c 0
 298 538 314 553 321 553 c 0
 337 553 344 516 344 497 c 0
 344 489 344 482 342 474 c 0
 325 411 286 342 219 336 c 1
 216 336 l 2xbe
EndSplineSet
EndChar

StartChar: three
Encoding: 51 51 19
Width: 511
GlyphClass: 2
Flags: MW
HStem: -22 37<206 232.5> 96 96<142 142> 311 47<285 325> 412 38<256 276.5 256 281.5> 629 37<405.5 438>
VStem: 96 101<101 157> 200 45<467.5 482> 308 38<484.5 500.5> 396 83<232.5 236 141.5 262.5> 487 75<521 579.5>
LayerCount: 2
Fore
SplineSet
276 320 m 0
 276 325 283 349 283 352 c 0
 285 358 287 358 325 358 c 0
 353 359 362 359 368 360 c 0
 441 378 471 443 485 527 c 0
 487 535 487 546 487 556 c 0
 487 603 462 629 414 629 c 0
 397 629 377 625 359 618 c 0
 317 603 279 569 259 530 c 0
 250 512 245 491 245 476 c 0
 245 459 248 450 264 450 c 0
 289 450 308 473 308 496 c 0
 308 505 306 512 300 522 c 0
 294 532 295 535 306 544 c 0
 316 552 318 553 322 553 c 0
 335 553 346 516 346 501 c 0
 346 457 305 412 258 412 c 0
 224 412 200 437 200 478 c 0
 200 486 200 494 202 500 c 0
 211 547 246 590 281 618 c 0
 319 646 364 666 416 666 c 0
 488 666 536 631 554 576 c 0
 559 561 562 546 562 530 c 0
 562 512 558 494 552 474 c 0
 533 416 487 364 430 335 c 1
 416 329 l 1
 454 304 479 266 479 206 c 0
 479 77 358 -10 250 -21 c 0
 243 -22 236 -22 229 -22 c 0
 155 -22 111 19 97 80 c 0
 96 86 96 96 96 106 c 0
 96 155 113 192 157 192 c 0
 179 192 194 179 197 157 c 0
 197 121 173 100 142 96 c 1
 143 92 l 1
 149 47 180 15 232 15 c 0
 246 15 260 18 275 22 c 0
 296 30 314 41 331 57 c 0
 355 82 368 110 383 169 c 0
 392 204 396 219 396 246 c 0
 396 279 382 300 355 309 c 0
 349 311 346 311 316 312 c 0
 305 312 296 311 290 311 c 0
 280 311 276 313 276 320 c 0
EndSplineSet
EndChar

StartChar: four
Encoding: 52 52 20
Width: 511
GlyphClass: 2
Flags: MW
HStem: -194 21G<276.5 292> -23 46<366 396 366 396> 29 46<164 178 178 186> 646 20G<429.5 454.5>
VStem: 396 82
LayerCount: 2
Fore
SplineSet
253 -165 m 0
 253 -156 290 -7 292 -5 c 0
 292 -4 287 -1 268 6 c 0
 222 24 203 29 169 29 c 0
 131 29 111 28 91 14 c 0
 73 -1 71 -2 65 1 c 0
 62 3 46 23 46 28 c 0
 46 45 82 60 96 74 c 0
 246 206 339 393 396 623 c 0
 403 647 415 666 444 666 c 0
 465 666 478 652 478 634 c 0
 478 632 477 629 477 627 c 0
 473 606 455 547 443 513 c 0
 385 349 298 210 187 99 c 2
 164 75 l 1
 178 75 l 2
 212 75 236 69 283 50 c 0
 296 45 303 43 304 43 c 1
 304 44 313 82 325 127 c 0
 347 218 347 218 358 228 c 0
 366 236 378 242 391 242 c 0
 408 242 423 231 423 214 c 0
 423 201 380 27 378 25 c 0
 378 23 379 23 387 23 c 0
 405 23 427 27 441 32 c 0
 453 36 453 35 463 22 c 0
 472 11 473 9 473 5 c 0
 473 0 470 -3 457 -7 c 0
 427 -18 407 -22 383 -23 c 2
 366 -23 l 1
 350 -91 l 2
 331 -166 329 -170 320 -180 c 0
 312 -188 298 -194 286 -194 c 0
 267 -194 255 -181 253 -165 c 0
EndSplineSet
EndChar

StartChar: five
Encoding: 53 53 21
Width: 511
GlyphClass: 2
Flags: MW
HStem: -22 43<213.5 237.5> 107 101<153 156 153 153> 383 37<340.5 377> 545 90<349.5 434> 552 114<280.5 294.5>
VStem: 106 47<100 107 100 138.5> 412 85<191.5 331.5>
LayerCount: 2
Fore
SplineSet
196 304 m 2xee
 193 306 189 310 189 314 c 0
 189 318 273 656 275 660 c 0
 277 664 279 666 282 666 c 0xee
 285 666 289 664 295 661 c 0
 325 646 369 635 413 635 c 0xf6
 455 635 499 643 543 661 c 0
 550 664 557 666 559 666 c 0xee
 562 666 567 661 567 658 c 0
 567 650 561 633 557 629 c 0
 518 590 450 556 391 547 c 0
 381 546 370 545 359 545 c 0xf6
 340 545 321 547 305 550 c 0
 298 552 295 552 294 552 c 1
 294 551 284 512 273 465 c 2
 251 379 l 1
 279 400 317 420 364 420 c 0
 402 420 430 407 453 385 c 0
 481 356 497 319 497 261 c 0
 497 122 383 2 262 -20 c 0
 256 -20 242 -22 233 -22 c 0
 159 -22 106 28 106 112 c 0
 106 165 122 208 173 208 c 0
 198 208 214 192 214 169 c 0
 214 136 186 107 156 107 c 2
 153 107 l 1
 153 100 l 1
 158 55 188 21 239 21 c 0
 246 21 252 22 259 23 c 0
 289 30 320 50 342 78 c 0
 365 108 377 137 394 207 c 0
 408 261 412 287 412 312 c 0
 412 351 396 383 358 383 c 0
 310 383 266 356 233 314 c 0
 224 304 225 304 209 304 c 2
 196 304 l 2xee
EndSplineSet
EndChar

StartChar: six
Encoding: 54 54 22
Width: 511
GlyphClass: 2
Flags: MW
HStem: -22 44<239 273.5 239 278> 397 37<361.5 384.5> 506 96<492 515> 626 39<454 465 465 471 454 485.5>
VStem: 120 77<73.5 168> 424 85<270 352.5> 465 100<533 608 567.5 665>
LayerCount: 2
Fore
SplineSet
255 370 m 0xfa
 255 369 304 434 377 434 c 0
 434 434 466 405 488 364 c 0
 502 335 509 308 509 278 c 0xfc
 509 262 507 244 503 225 c 0
 484 132 445 78 383 27 c 0
 342 -6 300 -22 256 -22 c 0
 214 -22 185 -8 163 16 c 0
 134 47 120 91 120 159 c 0
 120 177 121 197 122 207 c 0
 128 250 138 301 150 344 c 0
 179 445 237 538 310 599 c 0
 355 636 407 660 454 665 c 1
 465 665 l 2
 477 665 493 665 498 664 c 0
 541 654 565 633 565 583 c 0
 565 552 560 538 546 524 c 0
 535 513 518 506 504 506 c 0
 480 506 465 523 465 543 c 0
 465 576 489 593 515 602 c 1
 515 602 505 626 466 626 c 0
 431 626 403 613 372 587 c 0
 328 552 297 501 272 426 c 0
 267 411 255 371 255 370 c 0xfa
424 333 m 0
 424 372 404 397 365 397 c 0
 358 397 352 396 346 395 c 0
 299 387 257 337 230 259 c 0
 214 213 197 127 197 94 c 0
 197 53 218 22 260 22 c 0
 287 22 308 29 329 47 c 0
 355 69 369 96 386 151 c 0
 393 175 411 247 416 272 c 0
 422 299 424 318 424 333 c 0
EndSplineSet
EndChar

StartChar: seven
Encoding: 55 55 23
Width: 511
GlyphClass: 2
Flags: MW
HStem: 524 33<466 495.5> 581 85<367 383.5>
LayerCount: 2
Fore
SplineSet
495 524 m 0
 487 521 476 519 466 519 c 0
 444 519 432 528 413 554 c 0
 398 576 391 581 376 581 c 0
 293 581 219 501 186 437 c 0
 182 430 179 425 178 424 c 0
 176 422 174 422 159 422 c 0
 150 422 141 422 141 423 c 1
 139 423 136 428 136 431 c 0
 136 433 243 663 247 665 c 0
 249 666 254 666 266 666 c 2
 282 666 l 1
 286 662 288 660 288 657 c 0
 288 653 272 620 273 620 c 0
 306 644 344 666 390 666 c 0
 430 666 434 643 441 602 c 0
 445 573 449 564 457 559 c 0
 460 557 462 557 470 557 c 0
 503 557 534 583 582 651 c 0
 593 666 588 666 612 666 c 2
 628 666 l 2
 630 664 634 660 634 657 c 0
 634 653 631 649 624 639 c 0
 513 476 428 279 367 43 c 0
 360 14 356 6 346 -4 c 0
 335 -15 319 -22 304 -22 c 0
 279 -22 264 -7 263 14 c 0
 263 22 263 24 268 42 c 0
 309 205 397 367 486 507 c 0
 493 518 496 524 495 524 c 0
EndSplineSet
EndChar

StartChar: eight
Encoding: 56 56 24
Width: 511
GlyphClass: 2
Flags: MW
HStem: -21 42<230.5 266.5> 625 41<412.5 440>
VStem: 99 64<107 126 89.5 129> 209 70<449 537> 420 75<165.5 245> 492 61<526 567.5>
LayerCount: 2
Fore
SplineSet
416 666 m 0xf4
 495 666 553 622 553 546 c 0xf4
 553 483 516 428 449 384 c 0
 438 376 414 362 411 361 c 2
 410 360 l 1
 430 343 l 2
 469 311 495 279 495 211 c 0xf8
 494 194 494 188 492 178 c 0
 472 90 404 19 322 -10 c 0
 295 -19 280 -21 253 -21 c 0
 177 -21 124 16 106 72 c 0
 100 90 99 97 99 117 c 0
 99 141 102 160 111 182 c 0
 138 247 193 297 259 331 c 2
 272 338 l 1
 259 349 l 2
 229 375 211 401 209 449 c 0
 209 469 210 480 214 499 c 0
 235 579 312 651 397 665 c 0
 402 666 409 666 416 666 c 0xf4
415 625 m 0
 348 625 279 569 279 505 c 0
 279 494 282 484 286 474 c 0
 291 462 295 458 337 422 c 0
 359 403 378 387 379 386 c 0
 381 385 382 385 388 389 c 0
 422 409 453 441 472 471 c 0
 483 494 492 510 492 542 c 0
 492 593 465 625 415 625 c 0
163 118 m 0
 163 61 203 21 258 21 c 0
 338 21 404 82 419 148 c 0
 420 154 420 161 420 170 c 0xf8
 420 186 418 197 412 210 c 0
 404 225 401 228 350 271 c 2
 302 312 l 2
 300 312 282 301 272 294 c 0
 225 262 188 215 172 169 c 0
 166 151 163 134 163 118 c 0
EndSplineSet
EndChar

StartChar: nine
Encoding: 57 57 25
Width: 511
GlyphClass: 2
Flags: MW
HStem: -22 43<211 223.5 211 236.5> 211 37<290.5 324 290.5 332.5> 626 40<422 427 422 437.5>
VStem: 107 54<42 64 42 86> 107 100<55 111 64 111> 163 85<291.5 377.5> 476 77<457.5 575>
LayerCount: 2
Fore
SplineSet
417 275 m 0xf2
 417 276 368 211 297 211 c 0
 279 211 258 214 244 221 c 0
 218 231 199 251 183 285 c 0
 170 310 163 334 163 367 c 0
 163 388 167 411 174 439 c 0
 189 500 212 542 254 585 c 0
 304 634 350 659 401 665 c 0
 406 665 417 666 427 666 c 0
 518 661 553 588 553 491 c 0
 553 424 538 356 521 299 c 0
 492 195 434 101 358 37 c 0
 308 -2 260 -22 213 -22 c 0
 164 -22 129 -4 114 26 c 0
 109 37 107 42 107 55 c 2xf6
 107 64 l 2
 107 108 130 138 169 138 c 0
 193 138 207 121 207 101 c 0xea
 207 73 187 51 165 45 c 1
 161 43 l 2
 161 41 170 33 176 30 c 0
 187 24 203 21 219 21 c 0
 228 21 237 22 245 24 c 0
 280 33 315 60 344 99 c 0
 370 134 390 180 411 251 c 0
 414 264 417 274 417 275 c 0xf2
476 552 m 0
 476 598 458 626 417 626 c 0
 384 626 355 612 330 584 c 0
 306 556 294 527 270 433 c 0
 255 370 248 335 248 312 c 0
 248 271 271 248 310 248 c 0
 338 248 358 258 379 279 c 0
 432 328 455 414 473 513 c 0
 476 531 476 535 476 552 c 0
EndSplineSet
EndChar

StartChar: colon
Encoding: 58 58 26
Width: 307
GlyphClass: 2
Flags: MW
HStem: 0 121<168.5 176> 310 121<238.5 252>
VStem: 107 124<52.5 58.5> 184 124<363 377.5>
LayerCount: 2
Fore
SplineSet
233 310 m 0xd0
 204 310 184 332 184 358 c 0
 184 397 219 431 258 431 c 0
 286 431 308 412 308 383 c 0
 308 343 271 310 233 310 c 0xd0
156 0 m 0
 129 0 107 18 107 50 c 0
 107 67 114 79 122 91 c 0
 135 106 156 121 181 121 c 0
 209 121 231 102 231 72 c 0xe0
 231 33 196 0 156 0 c 0
EndSplineSet
EndChar

StartChar: semicolon
Encoding: 59 59 27
Width: 307
GlyphClass: 2
Flags: MW
HStem: -194 21G<85 89> 0 121<141.5 196.5> 310 121<238.5 252>
VStem: 180 46 184 124<363 377.5>
LayerCount: 2
Fore
SplineSet
233 310 m 0xe8
 204 310 184 332 184 358 c 0
 184 397 219 431 258 431 c 0
 286 431 308 412 308 383 c 0
 308 343 271 310 233 310 c 0xe8
107 47 m 0
 107 88 140 121 180 121 c 0
 213 121 226 97 226 61 c 0
 226 42 225 34 220 11 c 0
 207 -43 180 -97 140 -145 c 0
 129 -159 99 -189 94 -192 c 0
 92 -193 90 -194 88 -194 c 0
 82 -194 70 -177 70 -172 c 0
 70 -168 74 -163 86 -152 c 0
 118 -120 143 -85 161 -48 c 0
 170 -30 180 0 180 3 c 0xf0
 180 4 177 3 174 2 c 0
 172 2 162 0 156 0 c 0
 127 0 107 18 107 47 c 0
EndSplineSet
EndChar

StartChar: equal
Encoding: 61 61 28
Width: 767
GlyphClass: 2
Flags: MW
HStem: 133 40<131 422 131 422> 327 40<340 761 470 761>
LayerCount: 2
Fore
SplineSet
776 347 m 0
 776 337 769 332 761 327 c 1
 470 327 l 2
 210 327 180 327 176 329 c 0
 168 332 164 340 164 347 c 0
 164 354 168 361 176 365 c 0
 179 367 190 367 470 367 c 2
 761 367 l 1
 769 362 776 357 776 347 c 0
116 153 m 0
 116 163 123 168 131 173 c 1
 422 173 l 2
 702 173 713 173 717 171 c 0
 725 167 728 160 728 153 c 0
 728 146 725 139 717 135 c 0
 713 133 702 133 422 133 c 2
 131 133 l 1
 123 138 116 143 116 153 c 0
EndSplineSet
EndChar

StartChar: question
Encoding: 63 63 29
Width: 511
GlyphClass: 2
Flags: MW
HStem: 0 121<262 278> 198 38<309 324.5 309 332.5> 678 38<416 425 416 446>
VStem: 209 124<34.5 87> 251 49<253 267 253 293> 384 45 501 50<582.5 603>
LayerCount: 2
Fore
SplineSet
235 431 m 0xee
 212 431 195 446 195 468 c 0
 195 474 197 480 199 488 c 0
 221 569 271 643 330 683 c 0
 343 691 366 703 380 707 c 0
 392 712 409 716 423 716 c 0
 427 716 432 715 436 715 c 0
 507 715 551 663 551 590 c 0
 551 572 549 558 545 542 c 0
 534 504 511 465 482 439 c 0
 460 417 340 332 318 310 c 0
 307 296 300 275 300 259 c 0
 300 247 303 236 315 236 c 0
 334 236 348 247 359 258 c 0
 371 269 376 278 384 300 c 0
 386 305 389 306 407 306 c 2
 423 306 l 2
 425 304 429 300 429 297 c 0
 429 292 425 280 419 269 c 0
 398 229 357 198 308 198 c 0
 271 198 251 230 251 270 c 0
 251 316 269 349 293 374 c 1
 374 436 l 2
 453 497 461 503 474 522 c 0
 490 545 501 567 501 598 c 0
 501 608 500 620 499 626 c 0
 489 658 466 678 426 678 c 0
 386 678 367 666 340 644 c 0
 312 621 283 582 264 540 c 2
 259 528 l 2
 259 527 280 525 291 506 c 0
 293 502 293 499 294 492 c 0
 294 457 265 431 235 431 c 0xee
258 0 m 0
 231 0 209 18 209 51 c 0
 213 89 243 121 281 121 c 0
 311 121 333 102 333 72 c 0xf6
 333 38 298 0 258 0 c 0
EndSplineSet
EndChar

StartChar: at
Encoding: 64 64 30
Width: 767
GlyphClass: 2
Flags: MW
HStem: -11 37<380.5 395.5> 125 37<418 431 418 449 622.5 631.5> 532 37<516 530.5> 668 37<546.5 558.5>
VStem: 152 46<219 256> 279 77<246 294.5 246 359> 598 86<444 474> 743 46<445.5 488 445.5 504>
LayerCount: 2
Fore
SplineSet
617 185 m 2
 616 167 617 162 628 162 c 0
 635 162 645 165 653 170 c 0
 676 185 694 219 712 278 c 0
 729 334 739 381 742 416 c 0
 743 423 743 432 743 442 c 0
 743 566 681 649 586 665 c 0
 575 667 564 668 553 668 c 0
 520 668 485 660 450 645 c 0
 325 590 198 432 198 250 c 0
 198 141 248 63 326 36 c 0
 346 29 367 26 394 26 c 0
 411 26 431 27 454 30 c 0
 515 37 581 55 640 80 c 2
 650 84 l 1
 675 84 l 2
 704 84 706 84 708 78 c 0
 711 68 707 68 695 62 c 0
 624 28 544 5 468 -5 c 0
 442 -9 408 -11 383 -11 c 0
 287 -11 218 38 181 115 c 0
 160 153 152 190 152 248 c 0
 152 264 152 281 153 291 c 0
 165 385 205 475 268 552 c 0
 280 565 310 596 324 608 c 0
 387 662 459 696 529 704 c 0
 534 704 542 705 551 705 c 0
 638 705 696 671 736 620 c 0
 768 577 789 522 789 454 c 0
 789 437 788 418 787 407 c 0
 780 340 749 238 720 192 c 0
 692 148 657 125 617 125 c 0
 585 125 558 141 546 164 c 0
 543 170 541 175 541 176 c 0
 541 177 541 178 540 178 c 1
 540 179 481 125 417 125 c 0
 330 125 279 196 279 284 c 0
 279 434 407 569 523 569 c 0
 555 569 582 557 603 537 c 0
 616 523 625 510 632 490 c 2
 637 480 l 1
 657 479 l 1
 665 479 l 2
 677 479 684 478 684 470 c 0
 684 468 669 407 650 333 c 2
 617 199 l 1
 617 185 l 2
568 511 m 0
 554 525 543 532 518 532 c 0
 514 532 509 532 506 531 c 0
 466 522 422 478 393 419 c 0
 369 371 356 318 356 271 c 0
 356 221 370 184 396 169 c 0
 403 164 413 162 423 162 c 0
 439 162 457 168 475 178 c 0
 502 194 527 222 552 255 c 1
 575 348 l 2
 588 400 598 443 598 445 c 0
 598 468 581 498 568 511 c 0
EndSplineSet
EndChar

StartChar: A
Encoding: 65 65 31
Width: 743
GlyphClass: 2
Flags: MW
HStem: 0 46<78 83.5 264 266 672 683> 209 46<411 504 411 506> 696 20G<544 560.5>
VStem: 185 37<64.5 105>
LayerCount: 2
Fore
SplineSet
159 2 m 0
 117 2 96 0 71 0 c 0
 61 0 58 2 58 10 c 0
 58 14 65 39 66 40 c 0
 68 45 71 46 85 46 c 0
 128 49 157 63 178 93 c 0
 181 98 184 103 185 104 c 0
 185 106 521 708 524 709 c 0
 525 711 528 713 531 714 c 0
 534 716 537 716 551 716 c 0
 570 716 568 716 574 710 c 0
 575 709 584 562 594 384 c 0
 614 35 613 55 618 52 c 0
 623 48 645 46 672 46 c 2
 689 46 l 2
 692 43 696 41 696 36 c 0
 696 25 687 4 683 0 c 1
 670 0 l 2
 639 2 598 2 557 2 c 0
 517 2 478 1 441 1 c 0
 428 1 425 2 425 9 c 0
 425 12 426 18 427 24 c 0
 432 41 429 46 450 46 c 0
 484 46 514 50 514 69 c 0
 514 77 513 95 511 136 c 2
 506 209 l 1
 292 209 l 1
 260 152 l 2
 243 121 227 93 226 89 c 0
 223 84 222 78 222 74 c 0
 222 55 243 47 264 46 c 0
 274 46 277 44 279 40 c 0
 282 36 281 35 278 21 c 0
 274 4 273 0 259 0 c 0
 229 0 201 2 159 2 c 0
504 260 m 2
 501 267 490 549 486 553 c 0
 486 556 476 540 402 406 c 2
 318 256 l 2
 318 255 360 255 411 255 c 2
 504 255 l 1
 504 260 l 2
EndSplineSet
EndChar

StartChar: B
Encoding: 66 66 32
Width: 704
GlyphClass: 2
Flags: MW
HStem: 0 46<91.5 154> 337 37<375.5 408 371.5 434> 637 46<229 241 223 411>
VStem: 574 104<214.5 258 214.5 262> 629 103<541 555 536.5 574>
LayerCount: 2
Fore
SplineSet
219 664 m 0xf0
 223 678 223 677 229 683 c 1
 411 683 l 1
 593 682 l 1
 605 680 l 2
 671 668 717 632 730 575 c 0
 732 567 732 563 732 547 c 0xe8
 732 526 732 519 726 503 c 0
 705 436 632 381 556 360 c 2
 545 357 l 1
 556 355 l 2
 622 344 678 295 678 221 c 0
 678 208 676 193 672 179 c 0
 648 99 572 30 482 8 c 0
 451 0 468 1 256 0 c 2
 154 0 l 2
 50 0 60 1 58 7 c 0
 57 8 57 9 57 11 c 0
 57 13 57 17 59 25 c 0
 63 40 65 43 69 45 c 0
 70 45 84 46 99 46 c 0
 147 47 156 50 162 62 c 0
 165 67 303 621 303 626 c 0
 303 628 302 630 302 631 c 0
 298 635 273 637 241 637 c 2
 223 637 l 1
 215 643 214 644 219 664 c 0xf0
629 549 m 0
 629 599 606 628 570 636 c 0
 564 637 549 637 490 637 c 0
 450 637 415 636 411 636 c 0
 403 635 399 633 396 627 c 0
 391 618 336 380 332 376 c 0
 332 374 335 374 408 374 c 2
 485 375 l 1
 495 377 l 2
 560 394 613 451 627 519 c 0
 629 528 629 533 629 549 c 0
504 336 m 0
 500 337 458 337 410 337 c 0
 341 337 323 337 322 336 c 0
 321 331 252 53 252 51 c 0
 252 47 252 47 337 46 c 0
 426 46 427 46 448 53 c 0
 518 75 574 150 574 235 c 0xf0
 574 289 546 330 504 336 c 0
EndSplineSet
EndChar

StartChar: C
Encoding: 67 67 33
Width: 716
GlyphClass: 2
Flags: MW
HStem: -21 45<393.5 407.5> 659 45<546 562 562 569.5 546 627.5>
VStem: 150 102<180 252> 699 45
LayerCount: 2
Fore
SplineSet
705 493 m 0
 705 585 672 659 583 659 c 0
 505 659 433 614 387 570 c 0
 353 535 327 495 305 445 c 0
 281 388 259 303 253 243 c 0
 252 235 252 224 252 213 c 0
 252 147 266 108 297 74 c 0
 327 44 366 24 421 24 c 0
 536 24 624 142 653 240 c 0
 657 257 657 257 677 257 c 0
 695 257 698 256 700 251 c 0
 701 247 700 242 694 222 c 0
 659 114 567 14 454 -15 c 0
 433 -20 420 -21 395 -21 c 0
 381 -21 368 -21 362 -20 c 0
 257 -5 185 65 159 166 c 0
 154 188 150 216 150 244 c 0
 150 260 151 277 152 289 c 0
 163 378 203 468 265 543 c 0
 277 557 314 595 328 606 c 0
 395 662 471 696 546 704 c 1
 562 704 l 2
 577 704 596 704 604 703 c 0
 649 694 687 670 711 633 c 0
 713 629 715 627 716 627 c 2
 753 665 l 2
 773 686 791 704 792 704 c 0
 793 705 795 705 798 705 c 0
 805 705 812 704 812 698 c 0
 812 693 807 673 780 561 c 0
 761 487 745 424 744 421 c 0
 742 414 741 413 721 413 c 2
 705 413 l 1
 701 417 699 417 699 426 c 0
 700 429 701 437 701 444 c 0
 703 455 705 478 705 493 c 0
EndSplineSet
EndChar

StartChar: D
Encoding: 68 68 34
Width: 755
GlyphClass: 2
Flags: MW
HStem: 0 46<90.5 148> 637 46<228 240 222 403>
VStem: 679 96<469.5 508 393.5 523.5>
LayerCount: 2
Fore
SplineSet
218 664 m 0
 222 678 222 677 228 683 c 1
 403 683 l 2
 518 683 582 683 589 682 c 0
 698 671 775 576 775 440 c 0
 775 347 748 277 713 215 c 0
 675 149 621 91 562 54 c 0
 520 26 479 10 432 2 c 0
 422 1 408 1 243 0 c 2
 148 0 l 2
 50 0 59 1 57 7 c 0
 56 8 56 9 56 11 c 0
 56 13 56 17 58 25 c 0
 62 40 64 43 68 45 c 0
 69 45 83 46 98 46 c 0
 146 47 155 50 161 62 c 0
 164 67 302 621 302 626 c 0
 302 628 301 630 301 631 c 0
 297 635 272 637 240 637 c 2
 222 637 l 1
 214 643 213 644 218 664 c 0
254 51 m 0
 254 47 284 46 316 46 c 2
 348 46 l 2
 416 46 437 48 484 71 c 0
 553 105 601 165 633 255 c 0
 648 301 669 385 675 428 c 0
 677 446 679 462 679 477 c 0
 679 570 630 626 548 636 c 0
 543 636 511 637 480 637 c 0
 449 637 418 636 413 636 c 0
 405 635 401 633 398 627 c 0
 396 622 254 56 254 51 c 0
EndSplineSet
EndChar

StartChar: E
Encoding: 69 69 35
Width: 678
GlyphClass: 2
Flags: MW
HStem: 0 46<61 95 80.5 95 80.5 323> 330 46<367 368 324 387> 440 21G<675 690 675 675> 634 46<481 499>
VStem: 159 96<49 62.5> 464 75 667 46 675 68
LayerCount: 2
Fore
SplineSet
61 0 m 2xfd
 58 3 54 6 54 11 c 0
 54 17 59 37 61 41 c 0
 65 46 66 46 95 46 c 0
 144 47 153 50 159 62 c 0
 159 63 299 610 299 623 c 0
 299 628 298 629 295 630 c 0
 288 632 275 633 248 634 c 0
 218 634 216 635 214 640 c 0
 211 644 212 645 215 659 c 0
 219 673 220 676 224 678 c 0
 226 680 258 680 481 680 c 2
 736 680 l 2
 739 677 743 674 743 669 c 0xfd
 743 663 714 450 713 447 c 0xfe
 711 441 707 440 690 440 c 2
 675 440 l 1xfd
 670 444 667 444 667 450 c 0xfe
 667 454 668 460 670 470 c 0
 674 496 675 518 675 536 c 0
 675 599 657 622 592 632 c 0
 583 633 523 634 475 634 c 0
 446 634 421 634 416 633 c 0
 405 632 401 630 399 625 c 0
 397 621 336 381 336 377 c 0
 336 376 349 376 367 376 c 2
 387 376 l 2
 430 376 452 377 477 389 c 0
 497 401 510 423 522 471 c 0
 524 479 527 487 528 489 c 0
 530 492 533 493 549 493 c 0
 569 493 567 491 572 483 c 1
 539 351 l 2
 505 215 509 222 500 213 c 1
 484 213 l 2
 468 213 468 213 465 216 c 0
 460 220 460 223 464 240 c 0
 469 260 472 277 472 290 c 0
 472 313 464 321 443 326 c 0
 431 329 415 330 368 330 c 2
 324 330 l 1
 317 303 255 55 255 51 c 0
 255 47 255 47 331 46 c 0
 404 46 429 47 452 50 c 0
 505 58 544 78 570 113 c 0
 593 141 612 179 639 245 c 0
 649 270 649 270 652 272 c 0
 654 273 662 274 670 274 c 0
 678 274 685 273 687 272 c 0
 689 270 693 265 693 262 c 2
 648 148 l 2
 623 86 600 28 597 19 c 0
 592 6 590 4 588 2 c 0
 585 0 579 0 323 0 c 2
 61 0 l 2xfd
EndSplineSet
EndChar

StartChar: F
Encoding: 70 70 36
Width: 653
GlyphClass: 2
Flags: MW
HStem: 1 45<88.5 89 324 348.5> 317 46<332 369 321 380> 440 21G<663 678 663 663> 634 46<225 247 219 724 469 503>
VStem: 159 98<56.5 62.5> 656 45 663 68
LayerCount: 2
Fore
SplineSet
71 1 m 0xfa
 57 1 54 3 54 11 c 0
 54 13 54 17 56 25 c 0
 60 40 62 43 66 45 c 0
 67 45 81 46 96 46 c 0
 144 47 153 50 159 62 c 0
 159 63 299 610 299 623 c 0
 299 628 298 629 295 630 c 0
 288 632 274 633 247 634 c 2
 219 634 l 1
 212 641 210 641 215 661 c 0
 219 676 219 674 225 680 c 1
 724 680 l 2
 727 677 731 674 731 669 c 0xfa
 731 663 702 450 701 447 c 0xfc
 699 441 695 440 678 440 c 2
 663 440 l 2xfa
 659 443 656 445 656 452 c 0xfc
 656 456 657 462 658 474 c 0
 662 506 663 517 663 538 c 0
 663 611 635 629 566 633 c 0
 556 633 520 634 486 634 c 0
 452 634 419 633 415 633 c 0
 405 632 401 629 399 625 c 0
 398 623 382 563 364 492 c 2
 332 363 l 1
 380 363 l 2
 431 364 438 364 454 370 c 0
 485 380 499 401 514 458 c 0
 519 478 514 480 541 480 c 2
 556 480 l 2
 559 478 563 474 563 470 c 0
 563 466 500 212 498 207 c 0
 496 201 492 200 475 200 c 2
 460 200 l 1
 456 204 453 205 453 212 c 0
 458 227 464 266 464 278 c 0
 464 298 456 307 441 311 c 0
 428 316 421 317 369 317 c 2
 321 317 l 1
 289 190 l 2
 271 120 257 61 257 59 c 0
 257 54 260 51 270 49 c 0
 281 48 311 46 337 46 c 0
 360 46 367 46 367 38 c 0
 367 32 361 9 360 6 c 0
 358 2 357 1 342 1 c 0
 300 1 260 2 199 2 c 0
 140 2 107 1 71 1 c 0xfa
EndSplineSet
EndChar

StartChar: G
Encoding: 71 71 37
Width: 774
GlyphClass: 2
Flags: MW
HStem: -22 46<371 435.5> -1 21G<630.5 634> 227 46<504.5 517 495 532.5 752 755> 659 45<546 562 562 569.5 546 627.5>
VStem: 150 102<165.5 217 153.5 252> 595 98<211.5 213 210.5 217> 699 45
LayerCount: 2
Fore
SplineSet
394 -22 m 0xbe
 251 -22 150 87 150 244 c 0
 150 260 151 277 152 289 c 0
 163 378 203 468 265 543 c 0
 277 557 314 595 328 606 c 0
 395 662 471 696 546 704 c 1
 562 704 l 2
 577 704 596 704 604 703 c 0
 649 694 687 670 711 633 c 0
 713 629 715 627 716 627 c 2
 753 665 l 2
 773 686 791 704 792 704 c 0
 793 705 795 705 798 705 c 0
 805 705 812 704 812 698 c 0
 812 693 807 673 780 561 c 0
 761 487 745 424 744 421 c 0
 742 414 741 413 721 413 c 2
 705 413 l 1
 701 417 699 417 699 426 c 0
 700 429 701 437 701 444 c 0
 703 455 705 478 705 493 c 0
 705 585 672 659 583 659 c 0
 505 659 433 614 387 570 c 0
 347 529 317 480 294 416 c 0
 278 371 263 311 257 267 c 0
 254 246 252 226 252 208 c 0
 252 99 317 24 425 24 c 0xbe
 484 24 543 56 566 104 c 0
 574 122 595 209 595 214 c 0
 595 220 593 222 583 223 c 0
 572 225 543 227 517 227 c 2
 495 227 l 2
 492 230 488 233 488 238 c 0
 488 244 493 264 495 268 c 0
 498 271 498 273 511 273 c 0
 554 273 606 271 649 271 c 0
 693 271 731 271 752 273 c 2
 761 273 l 1
 768 266 770 266 765 246 c 0
 761 232 761 233 755 227 c 1
 742 227 l 2
 717 227 699 227 693 213 c 0
 693 208 639 4 639 4 c 2
 637 1 635 -1 633 -1 c 0x7e
 628 -1 621 7 614 14 c 0
 598 30 591 40 583 53 c 1
 541 11 477 -22 394 -22 c 0xbe
EndSplineSet
EndChar

StartChar: H
Encoding: 72 72 38
Width: 743
GlyphClass: 2
Flags: MW
HStem: 0 46<61 95 61 95 309 323.5 666 680.5> 332 46<324 596> 637 46<226 238 220 239 486 490 583 595 843 848>
LayerCount: 2
Fore
SplineSet
61 0 m 2
 58 3 54 6 54 11 c 0
 54 17 59 37 61 41 c 0
 65 46 66 46 95 46 c 0
 144 47 153 50 159 62 c 0
 162 67 300 621 300 626 c 0
 300 628 299 630 299 631 c 0
 295 635 270 637 238 637 c 2
 220 637 l 1
 212 643 211 644 216 664 c 0
 220 678 220 677 226 683 c 1
 239 683 l 2
 273 682 325 681 372 681 c 2
 421 681 l 2
 449 681 478 681 486 683 c 2
 496 683 l 1
 503 676 505 676 500 656 c 0
 496 642 496 643 490 637 c 1
 472 637 l 2
 438 637 413 634 406 630 c 0
 398 626 399 629 367 500 c 0
 350 435 337 381 336 380 c 0
 336 378 343 378 466 378 c 2
 596 378 l 1
 606 416 657 621 657 626 c 0
 657 628 656 630 656 631 c 0
 652 635 627 637 595 637 c 2
 577 637 l 1
 569 643 568 644 573 664 c 0
 577 678 577 677 583 683 c 1
 596 683 l 2
 630 682 682 681 729 681 c 2
 778 681 l 2
 806 681 835 681 843 683 c 2
 853 683 l 2
 856 680 860 677 860 672 c 0
 860 661 852 641 848 637 c 1
 819 637 l 2
 771 636 762 634 756 623 c 0
 752 616 614 64 614 57 c 0
 614 44 637 47 666 46 c 0
 695 46 697 45 699 40 c 0
 702 36 701 35 698 21 c 0
 693 3 694 0 677 0 c 0
 636 0 594 2 546 2 c 0
 499 2 453 2 428 0 c 2
 418 0 l 2
 415 3 411 6 411 11 c 0
 411 17 416 37 418 41 c 0
 422 46 423 46 452 46 c 0
 501 47 510 50 516 62 c 0
 518 65 584 328 584 331 c 0
 584 332 541 332 454 332 c 2
 324 332 l 1
 291 197 l 2
 264 91 257 60 257 56 c 0
 257 45 281 47 309 46 c 0
 338 46 340 45 342 40 c 0
 345 36 344 35 341 21 c 0
 336 3 337 0 320 0 c 0
 279 0 237 2 189 2 c 0
 142 2 96 2 71 0 c 2
 61 0 l 2
EndSplineSet
EndChar

StartChar: I
Encoding: 73 73 39
Width: 386
GlyphClass: 2
Flags: MW
HStem: 0 46<62 67 56 91 311.5 331.5> 637 45
LayerCount: 2
Fore
SplineSet
300 625 m 0
 300 636 279 637 258 637 c 2
 235 637 l 2
 215 637 212 638 210 643 c 0
 207 647 208 648 211 662 c 0
 215 676 216 679 220 682 c 0
 222 683 225 683 237 683 c 0
 278 681 324 681 369 681 c 0
 406 681 441 681 472 682 c 0
 496 683 499 683 502 681 c 0
 505 680 508 675 508 672 c 0
 508 669 502 646 500 643 c 0
 498 638 496 637 464 637 c 0
 435 636 417 634 410 632 c 0
 406 631 401 626 398 621 c 0
 395 617 257 63 257 58 c 0
 257 52 259 51 268 49 c 0
 277 47 301 46 322 46 c 0
 343 46 345 45 348 39 c 0
 349 36 349 34 346 22 c 0
 342 6 341 4 337 1 c 0
 335 1 334 0 329 0 c 0
 287 0 240 2 190 2 c 0
 141 2 95 2 67 0 c 2
 56 0 l 2
 53 3 49 6 49 11 c 0
 49 17 56 40 58 43 c 2
 62 46 l 1
 91 46 l 2
 142 47 153 50 159 62 c 0
 161 67 300 621 300 625 c 0
EndSplineSet
EndChar

StartChar: J
Encoding: 74 74 40
Width: 525
GlyphClass: 2
Flags: MW
HStem: -21 37<191.5 209 191.5 212> 637 45<591 599.5>
VStem: 78 118<52 129>
LayerCount: 2
Fore
SplineSet
444 627 m 0
 444 637 401 637 361 637 c 0
 335 637 333 637 331 644 c 0
 329 647 329 647 332 662 c 0
 336 677 337 679 341 682 c 0
 343 683 347 683 360 683 c 0
 405 681 455 681 500 681 c 0
 545 681 575 682 607 682 c 0
 617 682 622 681 622 673 c 0
 622 667 617 653 616 647 c 0
 613 638 612 637 587 637 c 0
 553 636 546 634 541 624 c 0
 536 614 418 140 413 124 c 0
 388 55 321 -6 234 -20 c 0
 227 -21 217 -21 207 -21 c 0
 131 -21 78 18 78 86 c 0
 78 135 104 170 149 170 c 0
 175 170 194 154 196 129 c 0
 196 93 169 62 137 58 c 0
 134 58 132 57 132 57 c 2
 131 56 139 44 145 38 c 0
 158 25 178 16 205 16 c 0
 213 16 220 16 225 18 c 0
 263 30 300 71 319 122 c 0
 321 127 444 607 444 627 c 0
EndSplineSet
EndChar

StartChar: K
Encoding: 75 75 41
Width: 769
GlyphClass: 2
Flags: MW
HStem: 0 46<316 331 316 316 688 700> 578 104<646.5 697> 637 46<226 238 220 239 487 491>
LayerCount: 2
Fore
SplineSet
70 1 m 0xc0
 58 1 54 3 54 11 c 0
 54 13 54 17 56 25 c 0
 60 40 62 43 66 45 c 0
 67 45 81 46 96 46 c 0
 144 47 153 50 159 62 c 0
 162 67 300 621 300 626 c 0
 300 628 299 630 299 631 c 0
 295 635 270 637 238 637 c 2
 220 637 l 1
 212 643 211 644 216 664 c 0
 220 678 220 677 226 683 c 1
 239 683 l 2
 273 682 325 681 372 681 c 2
 421 681 l 2
 450 681 479 681 487 683 c 2
 496 683 l 1
 503 676 505 676 500 656 c 0
 496 643 496 642 491 637 c 1
 462 637 l 2
 414 636 405 634 399 623 c 0
 397 620 385 575 358 467 c 2
 320 314 l 2
 321 314 394 376 484 452 c 0
 646 589 660 601 665 611 c 0
 666 615 667 617 667 620 c 0
 667 631 658 635 645 637 c 0xa0
 636 637 629 641 629 648 c 0
 629 651 635 674 637 677 c 0
 639 681 640 682 653 682 c 0
 687 682 721 680 764 680 c 0
 796 680 825 681 835 682 c 0xc0
 853 683 859 683 859 672 c 0
 859 667 853 645 852 643 c 0
 850 639 846 637 839 637 c 0xa0
 836 637 829 637 823 636 c 0
 782 631 744 615 707 586 c 0
 703 582 699 579 697 578 c 0
 696 578 652 541 600 497 c 2
 505 417 l 1
 508 408 l 1
 588 188 631 72 632 69 c 0
 642 52 654 47 688 46 c 2
 707 46 l 1
 713 38 715 40 710 19 c 0
 706 5 706 6 700 0 c 1
 688 0 l 2
 659 2 624 2 587 2 c 0
 551 2 511 1 474 1 c 0
 462 1 461 2 459 7 c 0
 457 10 457 10 460 23 c 0
 465 45 466 46 480 46 c 0
 510 46 526 55 526 72 c 0
 526 76 517 100 476 213 c 2
 427 350 l 2
 426 350 304 249 302 242 c 0
 302 240 291 199 279 150 c 0
 263 85 257 63 257 55 c 0
 257 45 282 47 309 46 c 2
 337 46 l 1
 344 39 346 39 341 19 c 0
 336 3 337 6 331 0 c 1
 316 0 l 2
 280 2 235 2 190 2 c 0
 146 2 108 1 70 1 c 0xc0
EndSplineSet
EndChar

StartChar: L
Encoding: 76 76 42
Width: 627
GlyphClass: 2
Flags: MW
HStem: 0 47<287.5 296> 637 46<226 238 220 240>
VStem: 578 50
LayerCount: 2
Fore
SplineSet
61 0 m 2
 58 3 54 6 54 11 c 0
 54 17 59 37 61 41 c 0
 65 46 66 46 95 46 c 0
 144 47 153 50 159 62 c 0
 162 67 300 621 300 626 c 0
 300 628 299 630 299 631 c 0
 295 635 270 637 238 637 c 2
 220 637 l 1
 212 643 211 644 216 664 c 0
 220 678 220 677 226 683 c 1
 240 683 l 2
 275 681 322 681 371 681 c 0
 419 681 465 682 509 682 c 0
 522 682 526 681 526 675 c 0
 526 670 521 645 519 643 c 0
 517 638 515 637 478 637 c 0
 433 636 416 634 408 630 c 0
 404 628 398 622 396 617 c 0
 394 613 255 54 255 51 c 0
 255 47 256 47 319 47 c 0
 382 47 387 47 410 52 c 0
 509 79 541 146 578 250 c 0
 582 265 584 267 589 273 c 1
 622 273 l 2
 624 270 628 267 628 262 c 0
 628 257 540 6 539 5 c 0
 536 0 551 0 296 0 c 2
 61 0 l 2
EndSplineSet
EndChar

StartChar: M
Encoding: 77 77 43
Width: 897
GlyphClass: 2
Flags: MW
HStem: 0 46<279 288 824 838 824 824> 637 46<230 242 224 326 974.5 979 979 997>
LayerCount: 2
Fore
SplineSet
72 1 m 0
 62 1 58 4 58 11 c 0
 58 16 64 39 66 41 c 0
 68 45 71 46 87 46 c 0
 125 48 155 58 168 84 c 0
 173 94 304 620 304 626 c 0
 304 628 303 630 303 631 c 0
 299 635 274 637 242 637 c 2
 224 637 l 1
 216 643 215 644 220 664 c 0
 224 678 224 677 230 683 c 1
 326 683 l 2
 418 683 422 683 425 681 c 0
 426 680 428 678 429 676 c 0
 430 675 480 127 480 127 c 2
 480 126 553 249 642 400 c 0
 731 550 804 674 805 676 c 0
 807 678 814 681 817 683 c 2
 1003 683 l 2
 1006 680 1010 677 1010 672 c 0
 1010 661 1001 641 997 637 c 1
 979 637 l 2
 970 637 954 637 945 636 c 0
 919 634 911 632 906 623 c 0
 902 616 764 64 764 57 c 0
 764 52 765 51 768 50 c 0
 775 48 789 47 817 46 c 2
 845 46 l 1
 851 38 853 40 848 19 c 0
 844 3 844 6 838 0 c 1
 824 0 l 2
 789 2 744 2 701 2 c 0
 658 2 621 1 584 1 c 0
 573 1 572 2 570 7 c 0
 568 10 568 10 571 25 c 0
 575 40 577 43 581 45 c 0
 582 45 596 46 611 46 c 0
 659 47 668 50 674 62 c 0
 676 66 813 616 813 616 c 1
 634 313 l 2
 535 146 454 8 452 7 c 0
 447 1 443 0 428 0 c 0
 413 0 409 1 407 6 c 0
 403 13 355 593 351 604 c 0
 351 608 344 583 285 348 c 0
 243 177 220 85 220 82 c 0
 220 54 249 48 279 46 c 2
 295 46 l 1
 301 38 303 40 298 19 c 0
 294 3 294 6 288 0 c 1
 275 0 l 2
 244 2 207 2 171 2 c 0
 135 2 103 1 72 1 c 0
EndSplineSet
EndChar

StartChar: N
Encoding: 78 78 44
Width: 743
GlyphClass: 2
Flags: MW
HStem: 0 46<61 83 61 83 274 282> 637 46<226 253 220 314 630 641 845 848>
VStem: 559 41<0 7.5>
LayerCount: 2
Fore
SplineSet
61 0 m 2
 58 3 54 6 54 11 c 0
 54 14 55 19 57 27 c 0
 62 45 62 46 83 46 c 0
 121 48 151 58 164 84 c 0
 167 90 179 138 235 362 c 2
 303 634 l 2
 301 635 282 636 253 637 c 2
 220 637 l 1
 213 644 211 642 216 664 c 0
 220 678 220 677 226 683 c 1
 314 683 l 2
 411 683 407 683 410 677 c 0
 411 676 452 564 501 428 c 0
 550 292 590 180 591 179 c 0
 592 176 597 194 645 385 c 0
 689 559 698 594 698 606 c 0
 698 629 669 637 633 637 c 0
 624 637 624 637 620 640 c 0
 616 645 616 647 620 664 c 0
 624 678 624 677 630 683 c 1
 641 683 l 2
 668 681 703 680 736 680 c 0
 755 680 774 681 790 681 c 0
 816 682 841 682 845 683 c 2
 853 683 l 2
 856 680 860 677 860 672 c 0
 860 661 852 641 848 637 c 1
 832 637 l 2
 808 636 790 632 776 624 c 0
 766 619 754 608 750 598 c 0
 747 592 735 546 673 300 c 0
 634 140 600 8 600 7 c 0
 598 1 594 0 576 0 c 2
 559 0 l 1
 550 9 541 39 448 297 c 2
 342 588 l 2
 341 588 216 85 216 81 c 0
 216 54 245 48 274 46 c 0
 290 46 293 45 295 40 c 0
 298 36 297 35 294 21 c 0
 289 4 290 0 275 0 c 0
 242 0 206 2 167 2 c 0
 128 2 91 2 70 0 c 2
 61 0 l 2
EndSplineSet
EndChar

StartChar: O
Encoding: 79 79 45
Width: 767
GlyphClass: 2
Flags: MW
HStem: -22 42<382.5 392> 665 39<542 552 552 559.5 540 594>
VStem: 149 104<198 212 153 325.5> 688 100<480 513.5 419.5 538>
LayerCount: 2
Fore
SplineSet
540 704 m 1
 552 704 l 2
 567 704 588 703 595 702 c 0
 712 685 788 583 788 444 c 0
 788 395 780 349 762 298 c 0
 737 224 695 157 639 100 c 0
 588 50 532 14 471 -6 c 0
 439 -17 407 -22 377 -22 c 0
 316 -22 262 0 221 41 c 0
 173 89 149 159 149 237 c 0
 149 414 261 569 376 644 c 0
 430 680 484 699 540 704 c 1
688 487 m 0
 688 589 640 665 548 665 c 0
 536 665 523 663 510 660 c 0
 435 641 364 574 319 481 c 0
 290 421 265 333 255 254 c 0
 254 243 253 221 253 203 c 0
 253 103 294 36 363 21 c 0
 369 20 378 20 387 20 c 0
 398 20 409 20 417 22 c 0
 459 31 499 54 537 92 c 0
 584 139 621 201 648 280 c 0
 667 337 682 402 687 451 c 0
 688 459 688 473 688 487 c 0
EndSplineSet
EndChar

StartChar: P
Encoding: 80 80 46
Width: 678
GlyphClass: 2
Flags: MW
HStem: 0 46<62 96 62 96 310 324.5> 301 41<359 404> 637 46<227 239 221 404>
VStem: 626 103<518 561.5>
LayerCount: 2
Fore
SplineSet
62 0 m 2
 59 3 55 6 55 11 c 0
 55 17 60 37 62 41 c 0
 66 46 67 46 96 46 c 0
 145 47 154 50 160 62 c 0
 163 67 301 621 301 626 c 0
 301 628 300 630 300 631 c 0
 296 635 271 637 239 637 c 2
 221 637 l 1
 213 643 212 644 217 664 c 0
 221 678 221 677 227 683 c 1
 404 683 l 2
 578 682 581 682 592 680 c 0
 648 670 690 642 712 599 c 0
 723 578 729 555 729 531 c 0
 729 505 722 479 709 452 c 0
 676 384 605 328 524 308 c 0
 495 301 498 302 404 301 c 2
 318 301 l 1
 288 182 l 2
 265 91 258 64 258 55 c 0
 258 45 282 47 310 46 c 0
 339 46 341 45 343 40 c 0
 346 36 345 35 342 21 c 0
 337 3 338 0 321 0 c 0
 280 0 238 2 190 2 c 0
 143 2 97 2 72 0 c 2
 62 0 l 2
552 635 m 0
 544 636 531 636 481 637 c 0
 446 637 416 636 412 636 c 0
 404 635 400 632 397 627 c 0
 395 623 326 345 325 344 c 0
 325 342 328 342 390 342 c 0
 427 342 459 342 466 343 c 0
 508 347 543 362 567 386 c 0
 588 407 600 432 613 486 c 0
 623 524 625 535 626 555 c 0
 626 568 626 573 625 579 c 0
 618 608 593 627 552 635 c 0
EndSplineSet
EndChar

StartChar: Q
Encoding: 81 81 47
Width: 767
GlyphClass: 2
Flags: MW
HStem: -194 109<510.5 583> -22 40<375.5 401 375.5 404.5> 118 36<398.5 432.5 389 436.5> 665 39<540 552 552 554>
VStem: 149 100<198 221 168 325.5> 315 38<44.5 68.5 40 71> 689 99<436.5 530.5>
LayerCount: 2
Fore
SplineSet
468 -7 m 0
 468 -6 430 -22 379 -22 c 0
 317 -22 262 0 221 41 c 0
 173 89 149 159 149 237 c 0
 149 414 261 569 376 644 c 0
 430 680 484 699 540 704 c 1
 552 704 l 2
 567 704 588 703 595 702 c 0
 657 693 710 659 744 607 c 0
 751 596 765 569 769 556 c 0
 783 522 788 491 788 442 c 0
 788 431 788 421 787 414 c 0
 781 333 752 252 703 180 c 0
 655 107 586 45 517 13 c 2
 506 8 l 1
 507 2 l 1
 512 -54 524 -77 552 -84 c 0
 555 -85 560 -85 565 -85 c 0
 601 -85 621 -72 642 -51 c 0
 656 -37 667 -19 672 0 c 0
 675 8 678 11 684 11 c 0
 689 11 694 7 695 2 c 0
 695 -2 693 -11 685 -35 c 0
 655 -130 609 -185 552 -193 c 0
 548 -194 543 -194 538 -194 c 0
 483 -194 462 -162 460 -107 c 0
 460 -84 461 -69 465 -32 c 0
 467 -19 468 -8 468 -7 c 0
315 46 m 0
 315 96 358 154 420 154 c 0
 445 154 458 148 473 135 c 0
 487 120 495 100 500 69 c 2
 502 58 l 1
 512 65 l 2
 569 108 616 178 647 265 c 0
 664 313 679 377 685 425 c 0
 687 444 689 463 689 481 c 0
 689 580 645 652 569 664 c 0
 563 665 557 665 551 665 c 0
 500 665 440 636 391 586 c 0
 330 522 287 431 261 308 c 0
 251 265 249 240 249 202 c 0
 249 134 264 90 295 58 c 0
 302 50 313 41 314 41 c 0
 315 41 315 43 315 46 c 0
472 49 m 2
 472 93 458 118 415 118 c 0
 382 118 353 86 353 51 c 0
 353 29 364 18 387 18 c 0
 415 18 446 29 472 40 c 1
 472 49 l 2
EndSplineSet
EndChar

StartChar: R
Encoding: 82 82 48
Width: 729
GlyphClass: 2
Flags: MW
HStem: -22 38<601.5 613.5> 0 46<62 96 62 96 307 321.5> 323 37<370 382> 637 46<227 239 221 386>
VStem: 471 110<50 68.5 48.5 101.5> 502 92<237.5 251.5 217.5 264.5> 612 105<547.5 566 522.5 584>
LayerCount: 2
Fore
SplineSet
62 0 m 2x76
 59 3 55 6 55 11 c 0
 55 17 60 37 62 41 c 0
 66 46 67 46 96 46 c 0
 145 47 154 50 160 62 c 0
 163 67 301 621 301 626 c 0
 301 628 300 630 300 631 c 0
 296 635 271 637 239 637 c 2
 221 637 l 1
 213 643 212 644 217 664 c 0
 221 678 221 677 227 683 c 1
 386 683 l 2
 561 682 552 683 580 676 c 0
 666 657 717 599 717 533 c 0
 717 512 712 490 701 468 c 0
 672 409 606 363 528 337 c 1
 538 330 l 2
 569 310 594 275 594 228 c 0x76
 594 207 581 72 581 65 c 0
 581 32 587 16 616 16 c 0
 635 16 643 23 652 37 c 0
 661 48 672 73 677 94 c 0
 679 103 683 105 701 105 c 0
 717 105 723 103 723 95 c 0
 723 91 722 85 719 78 c 0
 701 25 666 -13 627 -21 c 0
 622 -22 617 -22 610 -22 c 0
 531 -22 471 12 471 88 c 0xba
 471 115 475 124 486 168 c 0
 498 215 502 231 502 244 c 0
 502 285 482 310 452 320 c 0
 445 322 444 322 382 323 c 2
 320 323 l 1
 288 192 l 2
 263 94 255 64 255 55 c 0
 255 45 279 47 307 46 c 0
 336 46 338 45 340 40 c 0
 343 36 342 35 339 21 c 0
 335 4 335 0 320 0 c 0
 280 0 237 2 190 2 c 0
 144 2 99 2 73 0 c 2
 62 0 l 2x76
612 558 m 0
 612 610 579 626 532 635 c 0
 523 636 512 636 470 637 c 0
 442 637 416 636 412 636 c 0
 404 635 400 632 397 627 c 0
 396 623 330 364 330 361 c 2
 330 361 356 360 384 360 c 0
 455 360 483 360 527 382 c 0
 567 404 587 434 604 498 c 0
 611 529 612 537 612 558 c 0
EndSplineSet
EndChar

StartChar: S
Encoding: 83 83 49
Width: 562
GlyphClass: 2
Flags: MW
HStem: -22 47<266.5 310.5 264 312.5> 662 43<427.5 461 427.5 465.5>
VStem: 74 95 198 83<434.5 543.5> 455 83<193 244>
LayerCount: 2
Fore
SplineSet
169 147 m 0
 173 67 222 25 306 25 c 0
 315 25 324 25 331 27 c 0
 385 40 439 101 453 169 c 0
 455 180 455 183 455 203 c 0
 455 248 441 271 414 285 c 0
 411 287 384 295 347 305 c 0
 280 325 272 328 255 339 c 0
 221 363 198 409 198 460 c 0
 198 487 204 514 215 543 c 0
 248 627 326 693 406 703 c 0
 414 704 423 705 432 705 c 0
 490 705 533 680 557 644 c 1
 583 673 l 2
 598 689 610 703 611 704 c 0
 613 704 616 705 620 705 c 0
 627 705 633 705 633 698 c 0
 633 690 578 464 573 459 c 2
 570 456 l 1
 554 456 l 2
 536 456 531 456 531 466 c 0
 531 469 531 473 532 478 c 0
 535 497 536 515 536 532 c 0
 536 611 504 662 427 662 c 0
 352 662 281 584 281 503 c 0
 281 467 300 433 328 424 c 0
 368 411 437 393 463 383 c 0
 498 365 523 335 533 292 c 0
 537 278 538 272 538 258 c 2
 538 244 l 2
 538 219 537 206 532 187 c 0
 509 98 447 23 369 -9 c 0
 346 -18 325 -22 300 -22 c 0
 233 -22 181 2 152 41 c 1
 143 31 l 2
 138 26 126 12 116 1 c 0
 106 -10 97 -20 95 -21 c 0
 94 -21 90 -22 86 -22 c 0
 80 -22 74 -19 74 -14 c 0
 74 -11 130 213 132 221 c 0
 134 226 137 227 155 227 c 2
 171 227 l 1
 175 223 177 223 177 218 c 0
 177 215 176 209 174 198 c 0
 170 179 169 165 169 147 c 0
EndSplineSet
EndChar

StartChar: T
Encoding: 84 84 50
Width: 716
GlyphClass: 2
Flags: MW
HStem: 0 46<517 535 517 517> 631 46<379.5 422.5>
VStem: 723 45<443 446> 736 70
LayerCount: 2
Fore
SplineSet
178 437 m 2xd0
 175 440 173 442 171 446 c 0
 171 449 184 490 238 654 c 0
 243 670 244 671 250 677 c 1
 681 677 l 2
 817 677 803 676 805 671 c 0
 805 670 806 669 806 667 c 0xd0
 806 659 769 445 768 444 c 0
 768 442 766 440 764 439 c 0
 762 437 761 437 746 437 c 0
 730 437 730 437 727 440 c 0
 725 441 724 443 723 445 c 0xe0
 723 447 724 459 727 474 c 0
 733 513 736 541 736 562 c 0
 736 603 724 614 693 624 c 0
 675 630 669 630 622 630 c 0
 582 630 577 630 572 629 c 0
 567 627 566 626 564 623 c 0
 562 620 422 65 422 59 c 0
 422 58 423 56 425 54 c 0
 430 49 447 47 502 46 c 2
 542 46 l 1
 548 38 550 40 545 19 c 0
 541 5 541 6 535 0 c 1
 517 0 l 2
 475 2 416 2 357 2 c 0
 299 2 248 1 198 1 c 0
 184 1 180 2 180 8 c 0
 180 13 185 38 187 40 c 0
 189 46 190 46 232 46 c 0
 308 47 310 49 326 65 c 1
 395 344 l 2
 434 497 465 624 465 626 c 0
 465 628 464 629 462 629 c 0
 459 630 434 631 411 631 c 0
 348 631 304 620 278 587 c 0
 261 567 246 532 224 467 c 0
 215 443 216 443 210 437 c 1
 178 437 l 2xd0
EndSplineSet
EndChar

StartChar: U
Encoding: 85 85 51
Width: 743
GlyphClass: 2
Flags: MW
HStem: -22 46<354.5 386.5> 637 46<226 238 220 239 486 490 633 644 845 848>
VStem: 194 90<115 143 100.5 174>
LayerCount: 2
Fore
SplineSet
378 -22 m 0
 268 -22 194 63 194 167 c 0
 194 181 195 196 198 211 c 0
 200 226 300 618 300 626 c 0
 300 628 299 630 299 631 c 0
 295 635 270 637 238 637 c 2
 220 637 l 1
 212 643 211 644 216 664 c 0
 220 678 220 677 226 683 c 1
 239 683 l 2
 273 682 325 681 372 681 c 2
 421 681 l 2
 449 681 478 681 486 683 c 2
 496 683 l 1
 503 676 505 676 500 656 c 0
 496 642 496 643 490 637 c 1
 472 637 l 2
 438 637 413 634 406 630 c 0
 398 626 401 637 344 410 c 0
 315 295 291 195 289 188 c 0
 286 168 284 151 284 135 c 0
 284 66 322 24 387 24 c 0
 436 24 481 44 519 76 c 0
 557 109 587 157 604 211 c 0
 608 233 701 584 701 607 c 0
 701 629 671 637 636 637 c 0
 627 637 627 637 623 640 c 0
 619 645 619 647 623 664 c 0
 627 678 627 677 633 683 c 1
 644 683 l 2
 673 682 715 681 753 681 c 0
 777 681 835 681 845 683 c 2
 853 683 l 2
 856 680 860 677 860 672 c 0
 860 661 852 641 848 637 c 1
 832 637 l 2
 808 636 790 632 776 624 c 0
 766 619 754 608 750 598 c 0
 742 581 655 226 648 204 c 0
 634 161 612 121 584 86 c 0
 572 73 549 49 536 39 c 0
 503 13 465 -7 431 -15 c 0
 414 -20 395 -22 378 -22 c 0
EndSplineSet
EndChar

StartChar: V
Encoding: 86 86 52
Width: 743
GlyphClass: 2
Flags: MW
HStem: 637 46<220.5 229 229 230 220.5 243 456 460 663 667>
LayerCount: 2
Fore
SplineSet
384 615 m 0
 385 611 427 131 427 126 c 0
 428 124 699 586 704 596 c 0
 706 601 707 606 707 610 c 0
 707 628 688 635 667 637 c 0
 657 637 656 637 653 641 c 0
 649 645 649 647 653 664 c 0
 657 678 657 677 663 683 c 1
 675 683 l 2
 704 681 739 681 772 681 c 0
 799 681 823 681 842 682 c 0
 857 683 860 683 862 681 c 0
 865 680 868 675 868 672 c 0
 868 669 862 646 860 643 c 0
 858 639 854 637 848 637 c 0
 800 637 771 618 749 587 c 0
 745 581 394 -15 394 -15 c 2
 388 -21 385 -22 366 -22 c 0
 348 -22 345 -21 342 -16 c 0
 341 -14 334 62 313 303 c 0
 298 476 286 621 285 623 c 0
 283 636 263 637 243 637 c 2
 229 637 l 2
 212 637 209 638 207 643 c 0
 206 645 205 646 205 648 c 0
 205 650 206 654 208 662 c 0
 214 682 211 683 230 683 c 0
 261 681 295 680 329 680 c 0
 359 680 440 680 456 683 c 2
 466 683 l 1
 473 676 475 676 470 656 c 0
 466 642 466 643 460 637 c 1
 448 637 l 2
 422 637 384 636 384 615 c 0
EndSplineSet
EndChar

StartChar: W
Encoding: 87 87 53
Width: 999
GlyphClass: 2
Flags: MW
HStem: 637 46<226 231 226 234 551.5 559 559 561 915 920>
VStem: 277 99 303 91 613 95<551 620> 627 90
LayerCount: 2
Fore
SplineSet
234 637 m 0xc0
 209 637 205 637 205 648 c 0
 205 650 205 654 207 662 c 0
 211 677 212 679 216 682 c 0
 218 683 221 683 231 683 c 0
 265 681 302 681 340 681 c 0
 371 681 402 681 432 682 c 0
 455 683 458 683 461 681 c 0
 464 680 467 675 467 672 c 0
 467 669 461 646 459 643 c 0
 457 638 454 637 434 637 c 0
 403 636 384 631 377 622 c 0
 376 621 376 619 376 613 c 0xc0
 376 567 394 184 394 149 c 0
 394 146 431 214 596 519 c 2
 613 551 l 1
 612 585 l 2
 611 603 610 621 610 624 c 0
 608 636 592 637 574 637 c 2
 559 637 l 2
 544 637 544 637 541 640 c 0
 536 644 536 647 540 664 c 0
 545 680 544 677 550 683 c 1
 561 683 l 2
 587 681 621 680 656 680 c 0
 687 680 766 680 783 683 c 2
 792 683 l 1
 799 676 801 675 796 658 c 0
 793 644 792 642 789 639 c 0
 786 637 785 637 774 637 c 0
 740 637 716 632 708 620 c 1xb0
 717 385 l 2
 722 256 726 150 727 149 c 0
 728 146 965 586 969 596 c 0
 970 600 970 603 970 606 c 0
 970 628 946 633 920 637 c 0
 909 637 908 637 905 641 c 0
 901 645 901 647 905 664 c 0
 909 678 909 677 915 683 c 1
 928 683 l 2
 960 681 997 681 1031 681 c 0
 1058 681 1083 681 1101 682 c 0
 1119 683 1124 683 1124 672 c 0
 1124 667 1118 645 1117 643 c 0
 1115 639 1111 637 1104 637 c 0
 1064 637 1034 618 1017 592 c 0
 1015 588 1011 582 1009 580 c 0
 1007 573 687 -16 687 -16 c 2
 682 -21 678 -22 660 -22 c 0
 641 -22 643 -22 637 -16 c 0
 636 -15 632 77 627 223 c 0
 621 354 617 462 617 464 c 0
 617 468 604 446 487 228 c 0
 416 97 356 -13 355 -15 c 0
 349 -21 346 -22 328 -22 c 0
 307 -22 304 -20 303 -9 c 0xa8
 303 -7 278 624 277 627 c 0
 274 634 266 636 234 637 c 0xc0
EndSplineSet
EndChar

StartChar: X
Encoding: 88 88 54
Width: 743
GlyphClass: 2
Flags: MW
HStem: 0 46<268 284 279 280> 637 46<235 246 235 255 229 246 595 598>
LayerCount: 2
Fore
SplineSet
64 0 m 0
 56 0 50 4 50 11 c 0
 50 14 51 19 53 27 c 0
 58 46 58 45 78 46 c 0
 135 48 173 68 205 100 c 0
 209 105 258 162 312 225 c 2
 411 341 l 1
 407 353 l 2
 399 372 317 620 310 627 c 0
 303 634 292 636 255 637 c 2
 229 637 l 1
 222 644 220 642 225 664 c 0
 229 678 229 677 235 683 c 1
 246 683 l 2
 274 681 309 680 346 680 c 0
 367 680 389 681 409 681 c 0
 441 682 472 682 477 683 c 2
 487 683 l 1
 494 676 496 675 491 656 c 0
 487 639 485 638 471 637 c 0
 466 636 458 635 454 635 c 0
 439 631 420 623 421 619 c 0
 421 617 485 430 486 430 c 0
 487 430 621 589 624 593 c 0
 629 601 631 605 631 611 c 0
 631 627 614 636 598 637 c 0
 589 637 586 639 584 644 c 0
 582 647 582 647 585 660 c 0
 590 680 588 683 602 683 c 0
 635 683 668 680 715 680 c 0
 749 680 782 681 796 682 c 0
 820 683 821 683 824 676 c 0
 825 675 825 674 825 672 c 0
 825 667 819 644 817 642 c 0
 815 638 812 637 797 637 c 0
 757 635 727 626 700 608 c 0
 679 594 677 592 505 389 c 1
 501 384 l 1
 557 222 l 2
 602 91 614 59 616 57 c 0
 623 49 634 47 671 46 c 0
 699 46 701 45 704 39 c 0
 705 36 705 35 702 23 c 0
 698 7 697 3 693 1 c 0
 690 0 687 0 662 1 c 0
 645 2 608 2 569 2 c 0
 518 2 484 1 449 1 c 0
 437 1 436 2 434 6 c 0
 431 10 432 11 435 25 c 0
 440 45 441 45 457 46 c 0
 462 47 471 48 476 49 c 0
 490 53 506 61 506 64 c 0
 506 65 427 294 426 295 c 0
 425 296 253 93 249 86 c 0
 245 79 245 78 245 72 c 0
 245 54 261 47 279 46 c 0
 289 46 293 43 293 36 c 0
 293 32 292 27 290 19 c 0
 285 3 286 6 280 0 c 1
 268 0 l 2
 237 1 190 2 151 2 c 2
 113 2 l 2
 92 2 71 2 64 0 c 0
EndSplineSet
EndChar

StartChar: Y
Encoding: 89 89 55
Width: 743
GlyphClass: 2
Flags: MW
HStem: 0 46<241 275 241 275 496 508> 637 46<218 223 213.5 232 669.5 676 849.5 855>
LayerCount: 2
Fore
SplineSet
776 680 m 0
 817 680 837 683 862 683 c 0
 872 683 875 681 875 673 c 0
 875 669 868 644 867 643 c 0
 865 638 862 637 848 637 c 0
 807 635 775 622 749 597 c 0
 735 583 721 566 608 424 c 2
 487 273 l 1
 461 170 l 2
 446 113 435 63 434 60 c 0
 434 52 435 51 443 49 c 0
 451 47 475 46 496 46 c 2
 514 46 l 1
 522 40 523 39 518 19 c 0
 514 5 514 6 508 0 c 1
 495 0 l 2
 461 1 410 2 364 2 c 2
 315 2 l 2
 287 2 258 2 250 0 c 2
 241 0 l 2
 238 3 234 6 234 11 c 0
 234 17 239 37 241 41 c 0
 245 46 246 46 275 46 c 0
 325 47 333 50 340 64 c 0
 341 67 353 114 368 171 c 2
 393 274 l 1
 341 448 l 2
 306 563 287 624 286 626 c 0
 280 633 269 636 232 637 c 0
 204 637 198 637 198 647 c 0
 198 649 199 653 201 661 c 0
 206 682 204 683 223 683 c 0
 254 681 289 680 325 680 c 0
 356 680 438 680 455 683 c 2
 465 683 l 2
 468 680 472 677 472 672 c 0
 472 666 467 646 465 642 c 0
 461 638 460 637 441 637 c 0
 424 636 414 635 405 631 c 0
 400 630 395 625 395 623 c 0
 395 621 481 334 482 334 c 0
 483 334 685 587 688 591 c 0
 691 599 700 607 700 617 c 0
 700 632 684 637 668 637 c 0
 658 637 655 640 655 647 c 0
 655 651 656 657 658 664 c 0
 662 679 662 683 677 683 c 0
 706 683 735 680 776 680 c 0
EndSplineSet
EndChar

StartChar: Z
Encoding: 90 90 56
Width: 613
GlyphClass: 2
Flags: MW
HStem: 0 50<201 409> 442 21G<219.5 230> 637 46<512 584 512 512>
VStem: 203 51 556 53
LayerCount: 2
Fore
SplineSet
203 452 m 0
 203 457 269 676 270 677 c 0
 270 679 272 681 274 681 c 0
 276 683 303 683 488 683 c 2
 699 683 l 2
 701 681 704 679 704 675 c 0
 704 671 699 653 697 649 c 0
 697 648 585 512 449 348 c 2
 201 50 l 1
 266 49 l 2
 346 49 366 50 395 57 c 0
 437 67 472 87 495 116 c 0
 518 146 534 183 556 251 c 0
 565 280 564 282 579 282 c 2
 585 282 l 2
 597 282 601 282 603 280 c 0
 606 279 609 274 609 271 c 0
 609 269 531 5 524 2 c 0
 521 0 515 0 303 0 c 0
 105 0 85 0 83 2 c 0
 81 4 80 5 80 8 c 0
 80 17 87 37 89 39 c 0
 92 43 551 597 575 626 c 2
 584 637 l 1
 512 637 l 2
 452 636 438 636 428 635 c 0
 379 628 344 612 316 583 c 0
 290 557 271 522 254 467 c 0
 248 448 247 446 244 444 c 0
 242 443 234 442 226 442 c 0
 213 442 203 444 203 452 c 0
EndSplineSet
EndChar

StartChar: bracketleft
Encoding: 91 91 57
Width: 307
GlyphClass: 2
Flags: MW
HStem: -250 40<110 190 159 190 190 194> 710 40<350 381 381 408 324 434 350 350>
VStem: 73 47<-243 -208>
LayerCount: 2
Fore
SplineSet
349 706 m 2
 349 704 121 -207 120 -208 c 0
 120 -210 122 -210 159 -210 c 2
 190 -210 l 2
 206 -210 207 -215 204 -232 c 0
 200 -245 200 -244 194 -250 c 1
 137 -250 l 2
 83 -250 80 -250 77 -248 c 0
 76 -247 73 -244 73 -242 c 0
 73 -232 313 741 321 747 c 2
 324 750 l 1
 381 750 l 2
 435 750 438 750 441 748 c 0
 443 746 446 743 446 739 c 0
 446 727 438 714 434 710 c 1
 350 710 l 1
 349 706 l 2
EndSplineSet
EndChar

StartChar: bracketright
Encoding: 93 93 58
Width: 307
GlyphClass: 2
Flags: MW
HStem: -250 40<24 51 51 82 -2 108> 710 40<238 242 242 273>
VStem: 312 47<708 743>
LayerCount: 2
Fore
SplineSet
83 -206 m 2
 83 -204 311 707 312 708 c 0
 312 710 310 710 273 710 c 2
 242 710 l 2
 226 710 225 715 228 732 c 0
 232 745 232 744 238 750 c 1
 295 750 l 2
 349 750 352 750 355 748 c 0
 356 747 359 744 359 742 c 0
 359 732 119 -241 111 -247 c 2
 108 -250 l 1
 51 -250 l 2
 -3 -250 -6 -250 -9 -248 c 0
 -11 -246 -14 -243 -14 -239 c 0
 -14 -227 -6 -214 -2 -210 c 1
 82 -210 l 1
 83 -206 l 2
EndSplineSet
EndChar

StartChar: asciicircum
Encoding: 94 94 59
Width: 511
GlyphClass: 2
Flags: MW
HStem: 527 166
VStem: 260 268<553 554.5>
LayerCount: 2
Fore
SplineSet
528 555 m 0
 528 548 502 527 496 527 c 0
 492 527 491 528 488 531 c 0
 485 534 468 556 449 580 c 2
 414 625 l 1
 353 578 l 2
 320 552 291 530 290 529 c 0
 287 527 281 527 278 529 c 0
 275 531 261 550 260 553 c 0
 260 556 260 559 263 562 c 0
 266 565 419 691 421 693 c 0
 422 694 423 694 425 694 c 0
 428 694 431 693 433 691 c 0
 436 688 520 570 526 561 c 0
 527 559 528 557 528 555 c 0
EndSplineSet
EndChar

StartChar: underscore
Encoding: 95 95 60
Width: 511
GlyphClass: 2
Flags: MW
HStem: -62 37<98 442>
LayerCount: 2
Fore
SplineSet
98 -62 m 2
 94 -59 91 -56 91 -51 c 0
 91 -43 97 -28 100 -26 c 0
 102 -25 148 -25 324 -25 c 2
 442 -25 l 2
 562 -25 550 -26 552 -32 c 0
 553 -34 554 -34 554 -36 c 0
 554 -40 549 -55 548 -56 c 0
 545 -62 562 -62 319 -62 c 2
 98 -62 l 2
EndSplineSet
EndChar

StartChar: a
Encoding: 97 97 61
Width: 511
GlyphClass: 2
Flags: MW
HStem: -11 37<229.5 241 229.5 246> 405 37<323 346.5 319 347>
VStem: 101 83<107.5 108 82.5 157.5> 397 97<321.5 403>
LayerCount: 2
Fore
SplineSet
461 422 m 0
 476 422 494 411 494 395 c 0
 494 375 426 124 420 88 c 0
 418 80 418 68 418 58 c 0
 418 42 419 29 431 27 c 0
 440 24 448 27 456 36 c 0
 470 51 480 76 494 131 c 0
 500 152 499 153 516 153 c 2
 521 153 l 2
 536 153 538 153 540 151 c 0
 542 149 543 148 543 144 c 0
 543 141 542 136 541 129 c 0
 527 79 514 40 486 12 c 0
 473 -1 456 -11 434 -11 c 0
 401 -11 377 1 361 22 c 0
 356 28 347 45 347 48 c 0
 347 49 343 45 337 40 c 0
 300 6 264 -11 228 -11 c 0
 216 -11 204 -9 192 -5 c 0
 138 13 101 69 101 146 c 0
 101 169 105 193 111 219 c 0
 133 308 193 388 265 423 c 0
 288 434 305 442 333 442 c 0
 360 442 378 436 394 424 c 0
 404 416 412 405 419 396 c 1
 423 409 442 422 461 422 c 0
388 361 m 0
 378 388 361 405 333 405 c 0
 313 405 291 393 271 372 c 0
 241 341 226 306 203 215 c 0
 189 156 184 134 184 108 c 2
 184 100 l 2
 184 65 189 49 207 35 c 0
 214 29 224 26 235 26 c 0
 247 26 261 30 274 38 c 0
 292 49 313 69 330 91 c 0
 348 115 343 102 372 217 c 0
 390 289 397 320 397 323 c 0
 397 331 392 350 388 361 c 0
EndSplineSet
EndChar

StartChar: b
Encoding: 98 98 62
Width: 460
GlyphClass: 2
Flags: MW
HStem: -11 38<213 239 213 245.5> 405 37<328 345> 637 46<154 159 154 170 149 159> 674 20G<299.5 303>
VStem: 108 70<96.5 123.5 86.5 150> 384 83<317 327 257.5 341>
LayerCount: 2
Fore
SplineSet
158 683 m 0xec
 160 683 299 694 300 694 c 0xdc
 306 694 312 691 312 685 c 0
 312 680 308 660 279 544 c 0
 259 467 243 404 243 403 c 0
 243 402 288 442 338 442 c 0
 420 442 467 370 467 284 c 0
 467 231 449 170 418 118 c 0
 394 78 358 41 324 19 c 0
 293 0 262 -11 229 -11 c 0
 160 -11 108 51 108 142 c 0
 108 158 109 176 110 184 c 0
 116 216 216 616 216 616 c 2
 216 625 215 629 210 632 c 0
 204 634 192 636 170 637 c 2
 149 637 l 1
 142 644 140 642 145 664 c 0
 148 676 150 683 158 683 c 0xec
178 109 m 0
 178 64 192 27 234 27 c 0
 244 27 247 27 254 29 c 0
 278 38 305 62 323 94 c 0
 338 120 349 152 366 220 c 0
 381 281 384 302 384 332 c 0
 384 350 384 354 382 361 c 0
 375 388 358 405 332 405 c 0
 324 405 317 403 308 400 c 0
 282 390 252 362 228 326 c 2
 222 317 l 1
 205 250 l 2
 182 158 178 138 178 109 c 0
EndSplineSet
EndChar

StartChar: c
Encoding: 99 99 63
Width: 460
GlyphClass: 2
Flags: MW
HStem: -10 37<255 268.5> 405 36<359 365>
VStem: 103 84<110.5 124 95 166> 370 99<313 359.5>
LayerCount: 2
Fore
SplineSet
414 383 m 1
 400 394 387 402 365 405 c 0
 353 405 341 404 328 399 c 0
 286 385 249 347 227 294 c 0
 214 263 195 189 188 146 c 0
 187 138 187 129 187 119 c 0
 187 71 203 41 238 29 c 0
 245 27 247 27 263 27 c 0
 287 27 306 30 330 40 c 0
 366 53 401 79 426 109 c 0
 433 117 436 121 440 121 c 0
 446 121 464 101 466 97 c 0
 468 93 466 89 455 77 c 0
 421 37 369 7 313 -5 c 0
 293 -9 280 -10 257 -10 c 0
 237 -10 233 -10 224 -8 c 0
 150 7 103 66 103 155 c 0
 103 177 104 187 108 206 c 0
 128 305 199 393 290 427 c 0
 307 434 329 441 348 441 c 2
 358 441 l 2
 418 441 455 419 467 376 c 0
 469 371 469 363 469 356 c 0
 469 317 445 289 410 289 c 0
 389 289 370 301 370 325 c 0
 370 347 383 368 404 378 c 2
 414 383 l 1
EndSplineSet
EndChar

StartChar: d
Encoding: 100 100 64
Width: 511
GlyphClass: 2
Flags: MW
HStem: -11 37<225.5 239 225.5 246> 405 36<332 347> 637 46<409 414 409 425 404 414> 674 20G<554.5 557.5>
VStem: 101 83<107.5 108 87.5 157.5> 471 96<616 689> 494 47
LayerCount: 2
Fore
SplineSet
413 683 m 0xec
 415 683 554 694 555 694 c 0
 560 694 567 692 567 686 c 0xdc
 567 680 560 648 495 389 c 2
 419 86 l 2
 418 80 418 70 418 61 c 0
 418 43 418 30 431 27 c 0
 440 24 448 27 456 36 c 0
 470 51 480 76 494 131 c 0
 500 152 499 153 516 153 c 2
 521 153 l 2
 536 153 538 153 540 151 c 0
 544 148 544 144 541 129 c 0xda
 527 79 514 40 486 12 c 0
 473 -1 456 -11 434 -11 c 0
 401 -11 377 1 361 22 c 0
 356 28 347 45 347 48 c 0
 347 49 343 45 337 40 c 0
 300 6 264 -11 228 -11 c 0
 216 -11 204 -9 192 -5 c 0
 138 13 101 69 101 146 c 0
 101 169 105 193 111 219 c 0
 138 329 221 420 310 439 c 0
 318 441 327 441 337 441 c 0
 397 441 414 400 417 400 c 0
 420 400 471 616 471 616 c 2
 471 625 470 629 465 632 c 0
 459 634 447 636 425 637 c 2
 404 637 l 1
 397 644 395 642 400 664 c 0
 403 676 405 683 413 683 c 0xec
388 361 m 0
 378 388 361 405 333 405 c 0
 313 405 291 393 271 372 c 0
 241 341 226 306 203 215 c 0
 189 156 184 134 184 108 c 2
 184 100 l 2
 184 75 185 69 191 56 c 0
 200 36 216 26 235 26 c 0
 243 26 252 28 261 32 c 0
 288 43 331 86 344 112 c 0
 348 119 397 316 397 323 c 0
 397 330 392 350 388 361 c 0
EndSplineSet
EndChar

StartChar: e
Encoding: 101 101 65
Width: 460
GlyphClass: 2
Flags: MW
HStem: -10 37<257 264> 223 37<205 240 205 240> 405 37<361 364 364 376>
VStem: 107 82<137.5 140.5 100 179.5> 416 54<342 359 342 369>
LayerCount: 2
Fore
SplineSet
205 223 m 1
 198 195 189 156 189 125 c 0
 189 75 207 40 242 28 c 0
 246 27 253 27 261 27 c 0
 271 27 282 27 291 29 c 0
 342 38 392 67 426 109 c 0
 433 117 436 121 440 121 c 0
 446 121 464 101 466 97 c 0
 468 93 466 89 455 77 c 0
 416 32 358 1 292 -9 c 0
 283 -10 270 -10 258 -10 c 0
 210 -10 182 4 157 29 c 0
 127 59 107 109 107 166 c 0
 107 193 109 211 115 235 c 0
 134 320 197 393 283 426 c 0
 300 433 329 440 345 441 c 0
 347 441 355 442 361 442 c 2
 364 442 l 2
 416 442 455 416 467 375 c 0
 469 370 470 363 470 355 c 0
 470 329 461 310 450 293 c 0
 411 236 323 223 218 223 c 2
 205 223 l 1
416 354 m 0
 416 384 392 405 360 405 c 0
 348 405 336 403 324 399 c 0
 280 384 247 350 227 298 c 0
 223 289 215 264 215 261 c 0
 215 260 219 260 240 260 c 0
 305 262 342 268 369 282 c 0
 398 296 416 317 416 354 c 0
EndSplineSet
EndChar

StartChar: f
Encoding: 102 102 66
Width: 307
GlyphClass: 2
Flags: MW
HStem: -204 36<59 62> 385 46<120 158 114 165> 668 37<364 369>
VStem: -23 62<-162.5 -116.5> 211 80<432 433> 351 99<616 622>
LayerCount: 2
Fore
SplineSet
351 608 m 0
 351 636 371 650 389 661 c 1
 381 664 373 668 365 668 c 0
 350 668 342 656 336 645 c 0
 332 637 327 614 318 571 c 0
 311 535 291 434 291 432 c 0
 291 431 306 431 343 431 c 2
 394 431 l 1
 402 425 403 424 398 404 c 0
 394 392 394 391 389 386 c 1
 335 385 l 1
 282 385 l 1
 255 246 l 2
 221 69 217 51 205 4 c 0
 188 -67 171 -110 149 -143 c 0
 128 -175 105 -194 79 -202 c 0
 74 -204 66 -204 58 -204 c 0
 12 -204 -23 -178 -23 -134 c 0
 -23 -99 -1 -69 37 -69 c 0
 59 -69 76 -84 76 -108 c 0
 76 -112 76 -115 75 -119 c 0
 69 -139 55 -152 39 -161 c 0
 39 -164 56 -168 62 -168 c 0
 76 -168 83 -157 91 -145 c 0
 96 -133 98 -128 105 -95 c 2
 125 -1 l 2
 133 36 143 80 146 98 c 0
 152 123 202 382 202 384 c 0
 202 385 182 385 158 385 c 2
 114 385 l 1
 106 391 105 392 110 412 c 0
 114 428 114 425 120 431 c 1
 165 431 l 2
 208 431 211 431 211 433 c 0
 212 434 215 453 220 475 c 0
 238 573 248 608 266 639 c 0
 284 671 317 696 350 703 c 0
 355 704 361 705 367 705 c 0
 413 705 450 678 450 635 c 0
 450 597 427 569 390 569 c 0
 368 569 351 584 351 608 c 0
EndSplineSet
EndChar

StartChar: g
Encoding: 103 103 67
Width: 460
GlyphClass: 2
Flags: MW
HStem: -205 37<170 181.5 170 218.5> 1 37<223 243 217.5 251> 405 37<337 341 337 347.5>
VStem: 46 78<-162 -160.5 -162 -121.5> 103 82<92.5 163> 398 96<322 403.5>
LayerCount: 2
Fore
SplineSet
146 -115 m 0xf4
 146 -143 124 -159 124 -162 c 2xf4
 124 -162 124 -163 125 -163 c 0
 130 -165 151 -167 170 -168 c 0
 193 -168 203 -167 217 -162 c 0
 250 -150 282 -116 297 -78 c 0
 300 -70 327 37 327 38 c 1
 326 38 324 36 320 34 c 0
 294 13 271 1 231 1 c 0
 215 1 213 1 202 4 c 0
 139 20 103 78 103 163 c 0xec
 107 281 183 383 263 423 c 0
 282 432 303 439 320 441 c 0
 324 441 333 442 341 442 c 0
 381 438 400 422 419 398 c 1
 419 398 420 399 420 400 c 0
 426 411 448 422 464 422 c 0
 477 421 494 411 494 396 c 0
 494 374 378 -74 377 -77 c 0
 374 -88 365 -105 359 -115 c 0
 325 -167 258 -205 179 -205 c 0
 114 -205 46 -194 46 -139 c 0
 46 -104 76 -79 106 -79 c 0
 127 -79 146 -93 146 -115 c 0xf4
185 115 m 0xec
 185 70 197 38 238 38 c 0
 248 38 250 38 259 41 c 0
 286 50 312 72 337 107 c 0
 342 114 347 121 348 122 c 0
 349 125 398 320 398 324 c 0
 398 328 394 345 391 354 c 0
 381 386 363 405 332 405 c 0
 328 405 324 404 320 404 c 0
 302 399 280 384 263 365 c 0
 238 334 225 301 204 219 c 0
 190 164 186 141 185 115 c 0xec
EndSplineSet
EndChar

StartChar: h
Encoding: 104 104 68
Width: 511
GlyphClass: 2
Flags: MW
HStem: -10 37<407.5 415> 405 37<355 368> 637 46<154 159 154 170 149 159> 674 20G<299.5 303>
VStem: 326 71<46.5 47.5 39.5 80.5> 397 78<343 353.5> 496 48
LayerCount: 2
Fore
SplineSet
158 683 m 0xe6
 160 683 299 694 300 694 c 0
 306 694 312 691 312 685 c 0
 312 680 308 659 277 539 c 0
 257 459 241 394 241 393 c 2
 249 399 l 2
 281 427 322 442 362 442 c 0
 430 442 475 405 475 338 c 0xd6
 475 319 471 295 463 264 c 0
 452 224 440 186 418 124 c 0
 404 85 401 75 399 61 c 0
 398 55 397 50 397 45 c 0
 397 34 401 27 414 27 c 0
 430 27 439 33 451 43 c 0
 469 62 483 91 496 136 c 0
 500 152 500 153 515 153 c 2
 521 153 l 2
 536 153 538 153 540 151 c 0
 542 149 544 147 544 143 c 0
 544 140 543 136 541 130 c 0
 522 67 490 11 432 -8 c 0
 424 -10 422 -10 408 -10 c 0
 357 -10 326 21 326 72 c 0xda
 326 89 327 96 342 135 c 0
 370 214 389 276 395 315 c 0
 397 324 397 337 397 349 c 0
 397 358 397 367 396 372 c 0
 390 390 379 405 357 405 c 0
 353 405 349 405 344 404 c 0
 299 398 261 367 228 310 c 0
 213 284 216 295 180 152 c 0
 144 7 146 13 135 3 c 0
 126 -6 115 -11 102 -11 c 0
 84 -11 70 2 69 19 c 0
 69 29 216 616 216 616 c 2
 216 625 215 629 210 632 c 0
 204 634 192 636 170 637 c 2
 149 637 l 1
 142 644 140 642 145 664 c 0
 148 676 150 683 158 683 c 0xe6
EndSplineSet
EndChar

StartChar: i
Encoding: 105 105 69
Width: 307
GlyphClass: 2
Flags: MW
HStem: -10 36<203.5 211> 405 36<203 210.5> 560 96<276.5 287>
VStem: 122 71<48 52 39 75.5> 221 72<379 382 357 391.5> 234 98<601 613> 292 48
LayerCount: 2
Fore
SplineSet
234 599 m 0xf4
 234 627 261 656 292 656 c 0xf2
 315 656 332 640 332 617 c 0
 332 585 301 560 273 560 c 0
 250 560 234 577 234 599 c 0xf4
214 441 m 2
 263 441 293 407 293 357 c 0xf8
 292 345 292 340 290 333 c 0
 288 327 201 88 199 82 c 0
 196 72 193 58 193 46 c 0
 193 32 198 26 209 26 c 0
 222 26 235 32 247 43 c 0
 265 62 279 91 292 136 c 0
 296 152 296 153 311 153 c 2
 317 153 l 2
 332 153 334 153 336 151 c 0
 338 149 340 147 340 143 c 0xf2
 340 140 339 136 337 130 c 0
 318 67 286 11 228 -8 c 0
 220 -10 218 -10 204 -10 c 0
 152 -10 122 25 122 71 c 0
 122 80 123 89 125 98 c 0
 126 104 214 343 215 347 c 0
 219 361 221 374 221 384 c 0xf8
 221 399 218 405 203 405 c 0
 189 404 178 398 166 386 c 0
 149 367 136 341 124 298 c 0
 120 282 119 281 116 279 c 0
 115 278 107 278 97 278 c 2
 81 278 l 2
 79 280 75 283 75 287 c 0
 75 290 76 294 79 302 c 0
 94 355 124 402 155 424 c 0
 167 432 183 439 196 441 c 2
 214 441 l 2
EndSplineSet
EndChar

StartChar: j
Encoding: 106 106 70
Width: 307
GlyphClass: 2
Flags: MW
HStem: -204 36<47 51> 405 37<232.5 238.5> 560 96<305.5 317.5>
VStem: -32 99<-124.5 -122> 75 49 253 74<332 383> 266 98<599.5 612.5>
LayerCount: 2
Fore
SplineSet
266 600 m 0xfa
 266 625 289 656 322 656 c 0
 347 656 364 640 364 616 c 0
 364 583 330 560 305 560 c 0
 281 560 266 576 266 600 c 0xfa
81 278 m 2
 79 280 75 284 75 287 c 0
 75 291 81 306 91 326 c 0
 123 390 168 431 218 440 c 0
 223 441 229 442 236 442 c 0
 279 442 307 421 320 389 c 0
 325 377 327 371 327 358 c 2
 327 332 l 1
 278 134 l 2
 250 25 227 -69 225 -73 c 0
 203 -138 140 -189 75 -202 c 0
 67 -204 56 -204 46 -204 c 0
 0 -204 -32 -182 -32 -140 c 0
 -32 -104 -3 -79 27 -79 c 0
 48 -79 67 -92 67 -114 c 0
 67 -135 53 -156 38 -166 c 1
 41 -167 45 -168 49 -168 c 0
 71 -168 85 -160 99 -147 c 0
 117 -131 136 -101 146 -71 c 0
 150 -58 248 331 250 346 c 0
 252 355 253 365 253 373 c 0xfc
 253 393 247 405 230 405 c 0
 199 405 175 381 159 359 c 0
 146 342 134 320 124 294 c 0
 118 279 121 278 105 278 c 2
 98 278 l 1
 81 278 l 2
EndSplineSet
EndChar

StartChar: k
Encoding: 107 107 71
Width: 460
GlyphClass: 2
Flags: MW
HStem: -11 37<368.5 376.5 368.5 377.5> 296 95 404 38 637 46<154 159 154 170 149 159> 674 20G<299.5 302.5>
VStem: 280 75<59.5 62 45.5 96.5> 287 79<140.5 175.5> 398 100<319.5 393.5> 443 49
LayerCount: 2
Fore
SplineSet
158 683 m 0xf2
 160 683 299 694 300 694 c 0
 305 694 312 692 312 686 c 0
 312 681 306 655 262 478 c 2
 211 273 l 2
 212 272 231 285 239 292 c 0
 251 301 268 318 296 349 c 0
 336 392 350 405 371 419 c 0
 394 434 417 442 439 442 c 0
 477 442 498 414 498 373 c 0
 498 329 477 296 437 296 c 0
 417 296 398 308 398 331 c 0
 398 363 419 385 445 391 c 0
 453 392 453 393 448 399 c 0
 444 405 437 406 421 404 c 0
 405 401 392 395 377 385 c 0
 358 372 341 356 307 319 c 0
 282 291 261 271 250 261 c 0
 245 258 242 254 243 254 c 2
 243 254 248 252 254 251 c 0
 311 238 366 208 366 146 c 0xeb
 366 135 366 131 362 116 c 0
 355 85 355 80 355 62 c 2
 355 54 l 2
 355 37 362 26 375 26 c 0
 378 26 383 26 387 28 c 0
 418 36 432 88 443 130 c 0
 449 152 448 153 465 153 c 2
 470 153 l 2
 488 153 492 154 492 144 c 0
 492 135 481 100 472 78 c 0
 453 35 430 7 403 -5 c 0
 393 -9 383 -11 372 -11 c 0
 317 -11 280 31 280 88 c 0xec80
 280 105 287 130 287 146 c 0
 287 205 198 221 198 220 c 1
 197 220 186 175 173 121 c 0
 145 11 146 13 135 3 c 0
 126 -6 115 -11 102 -11 c 0
 84 -11 70 2 69 19 c 0
 69 29 216 616 216 616 c 2
 216 625 215 629 210 632 c 0
 204 634 192 636 170 637 c 2
 149 637 l 1
 142 644 140 642 145 664 c 0
 148 676 150 683 158 683 c 0xf2
EndSplineSet
EndChar

StartChar: l
Encoding: 108 108 72
Width: 256
GlyphClass: 2
Flags: MW
HStem: -11 38 637 46<154 159 154 170 149 159> 674 20G<299.5 302.5>
VStem: 87 75<53 65.5 52 84.5> 239 47
LayerCount: 2
Fore
SplineSet
158 683 m 0xd8
 160 683 299 694 300 694 c 0xb8
 305 694 312 692 312 686 c 0
 312 680 305 648 240 389 c 2
 164 86 l 2
 163 80 162 70 162 61 c 0
 162 43 163 30 176 27 c 0
 185 24 193 27 201 36 c 0
 215 51 225 76 239 131 c 0
 245 152 244 153 261 153 c 2
 266 153 l 2
 281 153 283 153 285 151 c 0
 289 148 289 144 286 129 c 0
 272 79 259 40 231 12 c 0
 218 -1 201 -11 179 -11 c 0
 125 -11 87 25 87 81 c 0
 87 88 87 96 88 102 c 2
 216 616 l 2
 216 625 215 629 210 632 c 0
 204 634 192 636 170 637 c 2
 149 637 l 1
 142 644 140 642 145 664 c 0
 148 676 150 683 158 683 c 0xd8
EndSplineSet
EndChar

StartChar: m
Encoding: 109 109 73
Width: 818
GlyphClass: 2
Flags: MW
HStem: -10 36<714.5 728.5> 405 37<184.5 189 184.5 189.5 400 418 662.5 675>
VStem: 120 76 376 76 632 72<38.5 84> 704 78<343 344 328.5 353.5>
LayerCount: 2
Fore
SplineSet
81 278 m 2
 78 281 75 283 75 289 c 0
 76 295 83 319 89 338 c 0
 109 400 134 432 170 441 c 0
 175 442 180 442 189 442 c 0
 215 440 235 431 251 417 c 0
 261 406 267 397 271 384 c 2
 275 374 l 1
 286 386 l 2
 319 419 356 442 414 442 c 0
 463 442 496 424 514 392 c 0
 519 384 521 374 524 366 c 1
 553 405 596 431 641 440 c 0
 649 441 658 442 667 442 c 0
 738 442 776 408 782 344 c 1
 782 338 l 2
 782 319 778 295 770 264 c 0
 759 223 747 185 724 123 c 0
 711 85 707 71 705 55 c 0
 705 51 704 48 704 45 c 0
 704 32 709 26 720 26 c 0
 758 26 784 67 802 136 c 0
 806 152 806 153 822 153 c 2
 828 153 l 2
 843 153 845 153 847 151 c 0
 849 149 851 147 851 143 c 0
 851 140 850 136 848 130 c 0
 833 78 805 33 775 10 c 0
 759 -2 742 -10 715 -10 c 0
 664 -10 632 26 632 71 c 0
 632 97 634 93 649 135 c 0
 677 215 696 276 702 315 c 0
 704 324 704 337 704 349 c 0
 704 358 704 367 703 372 c 0
 697 390 686 405 664 405 c 0
 660 405 656 405 651 404 c 0
 606 398 568 367 534 309 c 0
 519 283 522 293 487 151 c 0
 465 63 454 21 452 16 c 0
 444 0 426 -11 408 -11 c 0
 389 -11 377 0 376 18 c 0
 376 32 445 298 447 314 c 0
 449 325 449 331 449 346 c 0
 449 365 448 374 444 384 c 0
 436 396 428 405 408 405 c 0
 392 405 372 400 357 392 c 0
 327 377 300 348 276 305 c 0
 263 283 265 289 231 151 c 0
 209 63 198 21 196 16 c 0
 188 0 170 -11 152 -11 c 0
 133 -11 121 0 120 18 c 0
 120 33 197 327 200 347 c 0
 201 354 202 364 202 372 c 0
 202 392 198 405 181 405 c 0
 173 405 165 400 159 391 c 0
 146 375 136 347 121 287 c 0
 116 277 121 278 98 278 c 2
 81 278 l 2
EndSplineSet
EndChar

StartChar: n
Encoding: 110 110 74
Width: 562
GlyphClass: 2
Flags: MW
HStem: -10 37<458.5 466> 405 37<177 180 177 177 406 419>
VStem: 120 76 202 72<374 378 374 382> 377 71<46.5 47.5 39.5 80.5> 448 78<343 353.5> 547 48
LayerCount: 2
Fore
SplineSet
81 278 m 2
 79 280 75 284 75 287 c 0
 75 291 85 326 91 343 c 0
 103 379 114 400 131 417 c 0
 145 432 160 442 184 442 c 0
 228 442 256 421 270 389 c 0
 271 385 273 380 274 378 c 2
 274 374 l 1
 287 387 l 2
 318 418 356 442 414 442 c 0
 480 442 526 405 526 338 c 0
 526 319 522 295 514 264 c 0
 503 224 491 186 469 124 c 0
 455 85 452 75 450 61 c 0
 449 55 448 50 448 45 c 0
 448 34 452 27 465 27 c 0
 481 27 490 33 502 43 c 0
 520 62 534 91 547 136 c 0
 551 152 551 153 566 153 c 2
 572 153 l 2
 587 153 589 153 591 151 c 0
 593 149 595 147 595 143 c 0
 595 140 594 136 592 130 c 0
 573 67 541 11 483 -8 c 0
 475 -10 473 -10 459 -10 c 0
 408 -10 377 21 377 72 c 0
 377 89 378 96 393 135 c 0
 421 214 440 276 446 315 c 0
 448 324 448 337 448 349 c 0
 448 358 448 367 447 372 c 0
 441 390 430 405 408 405 c 0
 404 405 400 405 395 404 c 0
 350 398 312 367 278 309 c 0
 263 283 266 293 231 151 c 0
 209 63 198 21 196 16 c 0
 188 0 170 -11 152 -11 c 0
 133 -11 121 0 120 18 c 0
 120 24 123 35 159 181 c 0
 180 266 199 341 199 346 c 0
 201 355 202 364 202 372 c 0
 202 392 196 405 180 405 c 2
 177 405 l 2
 168 403 157 392 148 374 c 0
 140 357 132 331 121 287 c 0
 116 277 121 278 98 278 c 2
 81 278 l 2
EndSplineSet
EndChar

StartChar: o
Encoding: 111 111 75
Width: 511
GlyphClass: 2
Flags: MW
HStem: -11 37<235 261.5> 405 37<355 371>
VStem: 103 84<107 124 92.5 166> 432 85<291.5 324 216 331.5>
LayerCount: 2
Fore
SplineSet
217 385 m 0
 255 415 303 442 366 442 c 0
 457 442 517 373 517 275 c 0
 517 157 422 20 293 -7 c 0
 281 -10 268 -11 255 -11 c 0
 159 -11 103 59 103 155 c 0
 103 177 104 187 108 206 c 0
 122 276 165 343 217 385 c 0
187 119 m 0
 187 66 210 26 260 26 c 0
 280 26 300 33 321 47 c 0
 360 72 386 112 404 172 c 0
 416 212 432 268 432 315 c 0
 432 348 425 368 408 385 c 0
 394 399 384 405 358 405 c 0
 352 405 347 404 343 404 c 0
 296 395 252 353 227 294 c 0
 214 263 195 189 188 146 c 0
 187 138 187 129 187 119 c 0
EndSplineSet
EndChar

StartChar: p
Encoding: 112 112 76
Width: 511
GlyphClass: 2
Flags: MW
HStem: -194 46<205 221> -10 36<274 301> 405 37<177.5 186.5 379 396>
VStem: 435 83<317 327 257.5 341>
LayerCount: 2
Fore
SplineSet
81 278 m 2
 79 280 75 284 75 287 c 0
 75 291 85 326 91 343 c 0
 103 379 114 400 131 417 c 0
 147 434 160 442 189 442 c 0
 230 439 262 416 272 382 c 1
 280 390 l 2
 315 423 355 442 389 442 c 0
 471 442 518 370 518 284 c 0
 518 231 500 170 469 118 c 0
 445 78 409 41 375 19 c 0
 347 4 320 -10 282 -10 c 0
 266 -10 264 -10 256 -8 c 0
 235 -1 219 10 204 28 c 1
 202 32 l 1
 181 -51 l 2
 167 -107 160 -136 160 -139 c 0
 160 -148 178 -147 205 -148 c 2
 230 -148 l 1
 236 -156 238 -155 233 -175 c 0
 229 -190 228 -194 214 -194 c 0
 181 -194 143 -192 108 -192 c 0
 72 -192 40 -192 21 -194 c 2
 13 -194 l 2
 10 -191 6 -188 6 -183 c 0
 6 -180 7 -175 9 -167 c 0
 14 -148 13 -149 39 -148 c 0
 69 -147 74 -145 78 -136 c 0
 80 -132 99 -59 139 104 c 0
 172 232 199 342 199 347 c 0
 200 352 202 364 202 372 c 0
 202 394 192 405 181 405 c 0
 174 405 166 400 159 391 c 0
 146 375 136 347 121 287 c 0
 116 277 121 278 98 278 c 2
 81 278 l 2
221 111 m 1
 227 68 246 26 286 26 c 0
 324 26 363 66 385 116 c 0
 396 141 403 166 417 220 c 0
 432 281 435 302 435 332 c 0
 435 350 435 354 433 361 c 0
 426 388 409 405 383 405 c 0
 375 405 368 403 359 400 c 0
 333 390 303 362 279 326 c 2
 273 317 l 1
 221 111 l 1
EndSplineSet
EndChar

StartChar: q
Encoding: 113 113 77
Width: 460
GlyphClass: 2
Flags: MW
HStem: -194 46<409 426> -11 37<225.5 239 225.5 246> 405 37<323 347>
VStem: 101 83<104.5 108 87.5 154.5> 397 107<319.5 436.5>
LayerCount: 2
Fore
SplineSet
228 -11 m 0
 149 -11 101 62 101 147 c 0
 101 162 102 177 105 193 c 0
 122 292 186 384 265 423 c 0
 288 434 305 442 333 442 c 0
 379 442 402 421 420 394 c 1
 429 403 l 2
 435 409 442 415 448 419 c 0
 460 427 490 442 494 442 c 0
 497 442 504 439 504 434 c 0
 504 428 497 397 435 149 c 0
 386 -47 364 -136 364 -139 c 0
 364 -148 382 -147 409 -148 c 2
 434 -148 l 1
 440 -156 442 -155 437 -175 c 0
 433 -190 434 -194 418 -194 c 0
 386 -194 357 -192 309 -192 c 0
 263 -192 234 -193 204 -193 c 0
 194 -193 193 -192 191 -188 c 0
 188 -184 189 -183 192 -169 c 0
 197 -148 197 -148 219 -148 c 0
 249 -148 271 -145 277 -141 c 0
 283 -137 284 -134 305 -51 c 2
 325 29 l 1
 316 22 l 2
 292 4 264 -11 228 -11 c 0
388 361 m 0
 378 388 361 405 333 405 c 0
 313 405 291 393 271 372 c 0
 241 341 226 306 203 215 c 0
 189 156 184 134 184 108 c 2
 184 100 l 2
 184 75 185 69 191 56 c 0
 200 36 216 26 235 26 c 0
 243 26 252 28 261 32 c 0
 288 43 331 86 344 112 c 0
 348 119 397 316 397 323 c 0
 397 330 392 350 388 361 c 0
EndSplineSet
EndChar

StartChar: r
Encoding: 114 114 78
Width: 422
GlyphClass: 2
Flags: MW
HStem: 405 37<180.5 190 377 386.5>
VStem: 120 76 424 60<344 390>
LayerCount: 2
Fore
SplineSet
81 278 m 2
 78 281 75 283 75 289 c 0
 76 295 83 320 89 339 c 0
 109 401 135 432 170 441 c 0
 174 442 178 442 183 442 c 0
 229 442 260 418 271 384 c 1
 283 396 l 2
 303 417 321 428 343 435 c 0
 356 440 370 442 384 442 c 0
 435 442 484 414 484 362 c 0
 484 326 459 296 424 296 c 0
 404 296 385 308 385 331 c 0
 385 356 399 377 417 385 c 0
 421 387 424 389 424 390 c 0
 416 398 395 405 378 405 c 0
 373 405 369 405 365 404 c 0
 333 398 303 368 276 315 c 2
 268 300 l 1
 234 161 l 2
 210 66 198 21 196 16 c 0
 188 0 170 -11 152 -11 c 0
 133 -11 121 0 120 18 c 0
 120 24 123 35 159 181 c 0
 180 266 199 341 199 346 c 0
 201 355 202 364 202 372 c 0
 202 390 198 405 182 405 c 0
 178 405 173 404 169 401 c 0
 152 390 139 359 121 287 c 0
 116 277 121 278 98 278 c 2
 81 278 l 2
EndSplineSet
EndChar

StartChar: s
Encoding: 115 115 79
Width: 409
GlyphClass: 2
Flags: MW
HStem: -11 37<194 220 194 231.5> 404 38<289 318.5>
VStem: 76 99<77.5 130> 153 73<275.5 330.5> 321 74<106.5 179.5> 366 52<376 377>
LayerCount: 2
Fore
SplineSet
331 326 m 0xd4
 331 354 348 366 366 376 c 0
 366 378 358 387 353 391 c 0
 342 400 329 404 308 404 c 0
 270 404 249 387 235 361 c 0
 229 348 226 336 226 325 c 0xd4
 226 311 231 299 240 291 c 0
 247 284 253 282 282 276 c 0
 328 266 337 264 361 242 c 0
 379 224 395 196 395 163 c 0
 395 109 362 57 333 32 c 0
 299 5 256 -11 207 -11 c 0
 176 -11 154 -6 131 4 c 0
 107 16 94 29 84 49 c 0
 77 61 76 69 76 86 c 0
 76 125 96 156 135 156 c 0
 156 156 175 142 175 118 c 0
 175 94 160 75 142 66 c 0
 137 64 133 62 132 62 c 0
 129 62 130 59 136 53 c 0
 151 36 178 26 210 26 c 0
 230 26 251 30 267 38 c 0
 298 54 321 90 321 123 c 0xe8
 321 138 317 149 307 160 c 0
 295 172 287 176 250 184 c 0
 220 191 214 192 204 198 c 0
 184 207 171 221 162 241 c 0
 154 256 153 266 153 285 c 0
 153 326 167 354 184 380 c 0
 210 416 252 442 311 442 c 0
 368 442 418 413 418 356 c 0
 418 320 396 294 365 294 c 0
 343 294 334 307 331 326 c 0xd4
EndSplineSet
EndChar

StartChar: t
Encoding: 116 116 80
Width: 332
GlyphClass: 2
Flags: MW
HStem: 385 46<94 196 320 360>
VStem: 111 77<54.5 65.5 52 94>
LayerCount: 2
Fore
SplineSet
94 385 m 2
 91 388 87 390 87 395 c 0
 87 400 93 423 95 425 c 0
 98 431 97 431 149 431 c 2
 196 431 l 1
 215 511 l 2
 237 599 238 602 248 612 c 0
 255 619 267 626 281 626 c 0
 301 626 314 614 315 597 c 0
 315 588 277 435 275 433 c 0
 275 431 277 431 320 431 c 2
 366 431 l 2
 369 428 373 425 373 420 c 0
 373 408 364 389 360 385 c 1
 263 385 l 1
 189 86 l 2
 188 80 188 70 188 61 c 0
 188 43 189 29 201 27 c 0
 207 25 220 26 229 30 c 0
 261 40 294 81 316 138 c 0
 322 153 322 153 342 153 c 0
 357 153 359 153 361 151 c 0
 366 147 366 144 360 130 c 0
 354 116 343 94 335 80 c 0
 315 48 288 21 263 6 c 0
 243 -5 222 -11 202 -11 c 0
 149 -11 111 28 111 81 c 0
 111 107 184 383 184 383 c 2
 184 385 182 385 139 385 c 2
 94 385 l 2
EndSplineSet
EndChar

StartChar: u
Encoding: 117 117 81
Width: 537
GlyphClass: 2
Flags: MW
HStem: -10 36<258 291.5> 405 36<198 212>
VStem: 75 49 148 77<72.5 102.5 72.5 119.5> 221 72<374 384.5 357 391> 369 74<47 100.5> 524 46<144.5 146 142 147>
LayerCount: 2
Fore
SplineSet
81 278 m 2xee
 79 280 75 283 75 287 c 0
 75 290 76 294 79 302 c 0
 91 345 115 387 139 410 c 0
 157 428 179 441 205 441 c 0
 261 441 293 412 293 357 c 0xee
 292 338 292 335 275 290 c 0
 248 217 237 182 231 147 c 0
 227 128 225 110 225 95 c 0
 225 50 242 26 274 26 c 0
 310 26 333 45 352 70 c 0
 361 82 369 96 369 99 c 0
 369 102 442 394 446 404 c 0
 454 420 472 431 490 431 c 0
 509 431 521 420 522 402 c 0
 522 388 449 108 446 89 c 0
 444 79 443 66 443 56 c 0
 443 38 448 27 461 26 c 0
 469 26 473 27 479 33 c 0
 490 43 498 58 507 86 c 0
 512 99 524 143 524 146 c 0
 524 148 528 151 530 153 c 2
 547 153 l 2
 562 153 564 153 566 151 c 0
 568 150 570 148 570 144 c 0
 570 140 568 134 565 124 c 0
 554 78 538 36 512 12 c 0
 499 -3 478 -11 454 -11 c 0
 428 -9 408 -1 392 16 c 0
 386 23 378 35 376 41 c 0
 375 41 370 36 364 30 c 0
 337 5 314 -10 269 -10 c 0
 191 -10 148 33 148 108 c 0xf6
 148 131 152 158 161 189 c 0
 167 209 182 256 198 300 c 0
 218 353 221 365 221 383 c 0
 221 399 218 405 206 405 c 0
 190 405 178 398 166 386 c 0
 149 367 136 341 124 298 c 0
 120 282 119 281 116 279 c 0
 115 278 107 278 97 278 c 2
 81 278 l 2xee
EndSplineSet
EndChar

StartChar: v
Encoding: 118 118 82
Width: 460
GlyphClass: 2
Flags: MW
HStem: -10 36<264 288.5 264 295.5> 405 36<210 211.5>
VStem: 149 77<79 111.5 79 137> 221 72<375 381 357 392> 429 63<281 389>
LayerCount: 2
Fore
SplineSet
387 386 m 0xe8
 387 411 413 443 445 443 c 0
 477 443 492 407 492 371 c 0
 492 334 487 312 473 253 c 0
 452 171 429 114 400 68 c 0
 385 46 365 24 349 12 c 0
 329 -2 312 -10 279 -10 c 0
 194 -10 149 36 149 114 c 0xe8
 149 160 160 194 199 300 c 0
 218 354 221 366 221 384 c 0
 221 400 217 405 206 405 c 0
 190 405 179 399 166 386 c 0
 149 367 136 341 124 298 c 0
 120 282 119 281 116 279 c 0
 115 278 107 278 97 278 c 2
 81 278 l 2
 79 280 75 283 75 287 c 0
 75 290 76 294 79 302 c 0
 96 364 131 421 187 439 c 0
 194 441 197 441 210 441 c 2
 218 441 l 2
 264 441 293 405 293 357 c 0xd8
 292 338 292 335 275 290 c 0
 253 230 242 196 235 168 c 0
 229 143 226 121 226 102 c 0
 226 56 243 26 285 26 c 0
 292 26 299 27 305 28 c 0
 368 46 400 152 422 237 c 0
 428 261 429 272 429 290 c 0
 428 318 419 338 400 359 c 0
 391 368 387 376 387 386 c 0xe8
EndSplineSet
EndChar

StartChar: w
Encoding: 119 119 83
Width: 664
GlyphClass: 2
Flags: MW
HStem: -10 36<268.5 295 268.5 310.5> 405 36<210 211.5>
VStem: 150 77<84 113.5 84 135.5> 221 72<375 381 357 392> 366 78<103 104 73 119 73 119> 633 63<280.5 389>
LayerCount: 2
Fore
SplineSet
382 43 m 0xec
 362 14 335 -10 286 -10 c 0
 199 -10 150 32 150 115 c 0xec
 150 156 160 193 199 300 c 0
 218 354 221 366 221 384 c 0
 221 400 217 405 206 405 c 0
 190 405 179 399 166 386 c 0
 149 367 136 341 124 298 c 0
 120 282 119 281 116 279 c 0
 115 278 107 278 97 278 c 2
 81 278 l 2
 79 280 75 283 75 287 c 0
 75 290 76 294 79 302 c 0
 96 364 131 421 187 439 c 0
 194 441 197 441 210 441 c 2
 218 441 l 2
 264 441 293 405 293 357 c 0xdc
 292 338 292 335 275 290 c 0
 247 213 236 176 230 142 c 0
 228 130 227 119 227 108 c 0
 227 60 245 26 292 26 c 0
 298 26 304 27 307 28 c 0
 327 35 346 58 361 93 c 2
 366 103 l 1
 366 119 l 2
 367 129 368 141 369 150 c 0
 373 171 429 396 433 404 c 0
 441 420 459 431 477 431 c 0
 496 431 508 420 509 402 c 0
 509 387 473 259 446 140 c 0
 444 126 444 121 444 104 c 2
 444 92 l 2
 444 54 468 26 502 26 c 2
 505 26 l 2
 526 28 542 38 558 58 c 0
 582 89 600 135 623 226 c 0
 632 261 633 271 633 290 c 0
 632 318 623 338 604 359 c 0
 595 368 591 376 591 386 c 0
 591 411 617 443 649 443 c 0
 681 443 696 407 696 371 c 0
 696 333 691 313 675 247 c 0
 655 168 640 123 621 85 c 0
 597 35 568 6 533 -5 c 0
 521 -9 507 -11 493 -11 c 0
 464 -11 433 -3 411 12 c 0
 403 18 389 32 386 38 c 0
 384 41 383 43 382 43 c 0xec
EndSplineSet
EndChar

StartChar: x
Encoding: 120 120 84
Width: 464
GlyphClass: 2
Flags: MW
HStem: -11 37<144 164 144 168.5 324 342> 405 37<218.5 247>
VStem: 58 100<43 108> 78 43 414 99<319.5 388> 451 45<144.5 146>
LayerCount: 2
Fore
SplineSet
333 -11 m 0xc4
 285 -11 257 15 237 45 c 1
 218 18 191 -11 146 -11 c 0
 99 -11 58 19 58 67 c 0
 58 104 81 135 119 135 c 0
 141 135 158 120 158 96 c 0xe4
 158 92 158 89 157 85 c 0
 152 67 141 53 125 45 c 2
 115 41 l 1
 121 31 137 26 151 26 c 0
 177 26 200 52 214 93 c 0
 218 105 270 313 273 330 c 0
 275 339 275 348 275 356 c 0
 275 385 261 405 233 405 c 0
 200 405 178 386 160 364 c 0
 143 344 129 316 121 289 c 0
 118 277 120 278 98 278 c 2
 81 278 l 1
 75 284 73 284 78 300 c 0
 90 341 120 388 153 411 c 0
 178 430 202 442 235 442 c 0
 283 442 316 420 333 386 c 1
 339 394 344 400 351 408 c 0
 374 430 400 442 427 442 c 0
 473 442 513 412 513 364 c 0
 513 326 489 296 453 296 c 0
 433 296 414 308 414 331 c 0xd8
 414 359 429 379 450 387 c 0
 453 388 456 390 456 390 c 1
 456 390 448 404 421 404 c 0
 411 404 410 404 403 401 c 0
 385 392 369 370 358 341 c 0
 354 330 302 127 298 105 c 0
 296 95 295 84 295 75 c 0
 295 45 309 26 339 26 c 0
 345 26 353 27 357 28 c 0
 388 37 419 67 438 108 c 0
 442 118 451 143 451 146 c 2
 457 153 l 1
 474 153 l 2
 493 153 496 155 496 144 c 0
 496 134 481 96 469 76 c 0
 450 46 422 19 395 5 c 0
 374 -6 354 -11 333 -11 c 0xc4
EndSplineSet
EndChar

StartChar: y
Encoding: 121 121 85
Width: 486
GlyphClass: 2
Flags: MW
HStem: -205 38<185 217 185 241> -10 36<258 292.5> 405 36<198 212>
VStem: 75 49 91 100<-121.5 -76> 148 77<72.5 102.5 72.5 119.5> 221 72<374 384.5 357 391> 446 76
LayerCount: 2
Fore
SplineSet
81 278 m 2xf3
 79 280 75 283 75 287 c 0
 75 290 76 294 79 302 c 0
 91 345 115 387 139 410 c 0
 157 428 179 441 205 441 c 0
 261 441 293 412 293 357 c 0xf3
 292 338 292 335 275 290 c 0
 248 217 237 182 231 147 c 0
 227 128 225 110 225 95 c 0xe5
 225 50 242 26 274 26 c 0
 320 26 345 58 367 93 c 1
 405 245 l 2
 431 350 444 399 446 404 c 0
 454 420 472 431 490 431 c 0
 509 431 521 420 522 402 c 0
 522 388 417 -20 416 -24 c 0
 380 -128 286 -205 196 -205 c 0
 142 -205 102 -177 92 -133 c 0
 91 -128 91 -124 91 -119 c 0
 91 -81 113 -49 152 -49 c 0
 174 -49 191 -64 191 -88 c 0xe9
 191 -92 191 -95 190 -99 c 0
 187 -109 180 -121 174 -128 c 0
 167 -134 155 -138 146 -144 c 1
 161 -159 171 -167 199 -167 c 0
 235 -167 256 -152 276 -130 c 0
 301 -104 322 -68 336 -24 c 0
 342 -10 347 13 347 15 c 0
 347 16 316 -10 269 -10 c 0
 191 -10 148 33 148 108 c 0xe5
 148 131 152 158 161 189 c 0
 167 209 182 256 198 300 c 0
 218 353 221 365 221 383 c 0
 221 399 218 405 206 405 c 0
 190 405 178 398 166 386 c 0
 149 367 136 341 124 298 c 0
 120 282 119 281 116 279 c 0
 115 278 107 278 97 278 c 2
 81 278 l 2xf3
EndSplineSet
EndChar

StartChar: z
Encoding: 122 122 86
Width: 409
GlyphClass: 2
Flags: MW
HStem: -11 79<283.5 291> 362 80<247.5 256>
VStem: 416 50
LayerCount: 2
Fore
SplineSet
60 -11 m 2
 58 -9 54 -6 54 -2 c 0
 54 1 56 6 61 14 c 0
 94 72 136 120 233 215 c 0
 303 284 349 333 349 338 c 0
 349 339 313 348 302 351 c 0
 272 361 265 362 247 362 c 0
 216 362 188 348 182 327 c 0
 181 324 180 321 178 320 c 0
 176 318 175 317 160 317 c 0
 144 317 140 318 137 321 c 0
 135 325 136 329 139 339 c 0
 150 374 174 404 202 423 c 0
 219 435 235 442 260 442 c 0
 266 442 272 441 276 440 c 0
 293 436 304 428 324 406 c 0
 343 384 352 377 365 375 c 0
 373 373 376 374 382 379 c 0
 388 384 404 407 416 427 c 0
 422 441 421 442 433 442 c 2
 444 442 l 1
 460 442 l 2
 462 440 466 437 466 434 c 0
 466 431 464 426 459 417 c 0
 447 397 442 388 426 367 c 0
 391 320 358 285 273 202 c 0
 230 160 199 128 178 105 c 2
 170 95 l 1
 181 94 l 2
 196 93 211 89 237 81 c 0
 259 73 272 68 295 68 c 0
 341 68 382 104 395 141 c 0
 399 153 399 153 419 153 c 0
 435 153 441 153 441 144 c 0
 441 136 435 115 424 96 c 0
 405 55 374 23 340 5 c 0
 320 -6 300 -11 282 -11 c 0
 274 -11 267 -10 261 -8 c 0
 246 -3 243 0 208 37 c 0
 195 50 189 57 171 57 c 0
 162 57 153 54 143 48 c 0
 130 39 116 23 103 2 c 0
 97 -10 98 -11 87 -11 c 2
 76 -11 l 1
 60 -11 l 2
EndSplineSet
EndChar

StartChar: asciitilde
Encoding: 126 126 87
Width: 511
GlyphClass: 2
Flags: MW
HStem: 209 56<442 476.5 447 476.5> 261 57<346 371.5>
VStem: 247 324<224.5 299>
LayerCount: 2
Fore
SplineSet
266 208 m 0x60
 261 208 247 221 247 228 c 0
 247 234 246 233 274 259 c 0
 310 294 332 310 355 316 c 0
 359 317 364 318 369 318 c 0x60
 374 318 379 317 383 316 c 0
 395 313 405 307 424 288 c 0
 445 268 451 265 464 265 c 0xa0
 489 265 522 296 538 310 c 0
 543 315 546 318 550 318 c 0x60
 560 318 571 301 571 297 c 0
 570 293 568 291 548 271 c 0
 524 247 511 236 495 226 c 0
 478 214 466 209 451 209 c 2
 447 209 l 2xa0
 437 209 435 209 429 211 c 0
 418 216 412 220 397 235 c 0
 379 252 375 255 368 259 c 0
 364 261 360 261 355 261 c 0
 337 261 315 249 285 221 c 0
 275 212 270 208 266 208 c 0x60
EndSplineSet
EndChar

StartChar: sterling
Encoding: 163 163 89
Width: 769
GlyphClass: 2
Flags: MW
HStem: -11 55<466 480 466 490> -10 36<156 161.5> 85 54<189.5 204.5> 324 46<265 300 265 323 259 300 458 495> 473 95<648 648 648 660> 677 37<572.5 607.5>
VStem: 88 54<35.5 41> 654 45<569 576 576 604>
LayerCount: 2
Fore
SplineSet
253 332 m 0x7f
 253 341 262 365 265 370 c 1
 300 370 l 1
 334 371 l 1
 355 453 l 2
 366 498 377 540 379 546 c 0
 390 574 405 603 425 627 c 0
 450 660 486 688 528 703 c 0
 546 709 562 714 583 714 c 0
 661 714 699 655 699 578 c 0
 699 521 685 473 635 473 c 0
 611 473 596 486 595 508 c 0
 595 541 620 565 648 568 c 2
 654 569 l 1
 654 576 l 2
 654 632 634 677 581 677 c 0
 521 677 480 617 463 561 c 0
 459 550 414 373 414 371 c 0
 414 370 434 370 458 370 c 2
 502 370 l 2
 504 368 508 364 508 362 c 0
 508 357 499 328 498 327 c 2
 495 324 l 1
 402 324 l 1
 382 241 l 2
 362 166 363 159 344 120 c 0
 339 110 335 101 336 101 c 2
 354 90 l 2
 393 66 408 59 429 51 c 0
 446 47 456 44 476 44 c 0
 484 44 491 44 495 45 c 0
 528 54 560 89 574 133 c 0
 579 148 578 148 598 148 c 0
 615 148 622 148 622 140 c 0
 622 138 621 134 620 130 c 0
 598 61 533 -11 447 -11 c 0xbf
 393 -11 360 11 317 38 c 2
 294 51 l 1
 266 23 222 0 183 -8 c 0
 174 -10 168 -10 155 -10 c 0
 121 -10 103 0 93 19 c 0
 90 26 88 32 88 39 c 0
 88 43 89 47 90 52 c 0
 102 99 155 139 224 139 c 0
 251 139 271 132 273 132 c 0
 275 132 282 161 302 239 c 2
 323 324 l 1
 259 324 l 2
 257 326 253 330 253 332 c 0x7f
245 76 m 1
 230 80 214 85 195 85 c 0
 167 85 142 63 142 42 c 0
 142 29 149 26 163 26 c 0x7f
 193 28 225 49 245 76 c 1
EndSplineSet
EndChar

StartChar: dotlessi
Encoding: 305 305 90
Width: 307
GlyphClass: 2
Flags: MW
HStem: -10 36<203.5 211> 405 36<203 210.5>
VStem: 122 71<48 52 39 75.5> 221 72<379 382 357 391.5> 292 48
LayerCount: 2
Fore
SplineSet
214 441 m 2xf0
 263 441 293 407 293 357 c 0xf0
 292 345 292 340 290 333 c 0
 288 327 201 88 199 82 c 0
 196 72 193 58 193 46 c 0
 193 32 198 26 209 26 c 0
 222 26 235 32 247 43 c 0
 265 62 279 91 292 136 c 0
 296 152 296 153 311 153 c 2
 317 153 l 2
 332 153 334 153 336 151 c 0
 338 149 340 147 340 143 c 0xe8
 340 140 339 136 337 130 c 0
 318 67 286 11 228 -8 c 0
 220 -10 218 -10 204 -10 c 0
 152 -10 122 25 122 71 c 0
 122 80 123 89 125 98 c 0
 126 104 214 343 215 347 c 0
 219 361 221 374 221 384 c 0
 221 399 218 405 203 405 c 0
 189 404 178 398 166 386 c 0
 149 367 136 341 124 298 c 0
 120 282 119 281 116 279 c 0
 115 278 107 278 97 278 c 2
 81 278 l 2
 79 280 75 283 75 287 c 0
 75 290 76 294 79 302 c 0
 94 355 124 402 155 424 c 0
 167 432 183 439 196 441 c 2
 214 441 l 2xf0
EndSplineSet
EndChar

StartChar: uni0237
Encoding: 567 567 91
Width: 332
GlyphClass: 2
Flags: MW
HStem: -204 37<44 59 59 61> 405 37<235 239.5>
VStem: -32 99<-124 -122> 75 49 252 75<332 381>
LayerCount: 2
Fore
SplineSet
81 278 m 2
 79 280 75 284 75 287 c 0
 75 294 94 333 106 353 c 0
 137 400 167 428 218 441 c 0
 223 442 230 442 240 442 c 0
 292 439 327 407 327 350 c 2
 327 332 l 1
 278 134 l 2
 250 25 227 -69 225 -73 c 0
 202 -138 146 -188 82 -202 c 0
 73 -204 68 -204 54 -204 c 0
 20 -204 1 -197 -15 -181 c 0
 -27 -169 -32 -157 -32 -140 c 0
 -32 -104 -3 -79 27 -79 c 0
 48 -79 67 -92 67 -114 c 0
 67 -134 55 -154 39 -166 c 1
 44 -167 l 1
 59 -167 l 2
 82 -167 91 -159 104 -146 c 0
 122 -128 134 -106 145 -74 c 0
 150 -61 248 331 251 347 c 0
 252 353 252 362 252 370 c 0
 252 392 249 405 230 405 c 0
 212 405 194 396 175 378 c 0
 155 357 139 331 124 294 c 0
 118 279 121 278 105 278 c 2
 98 278 l 1
 81 278 l 2
EndSplineSet
EndChar

StartChar: gravecomb
Encoding: 768 768 92
Width: 0
GlyphClass: 2
Flags: MW
HStem: 500 197<-185.5 -103.5>
VStem: -222 148<524.5 663>
LayerCount: 2
Fore
SplineSet
-74 526 m 0
 -74 523 -100 500 -107 500 c 0
 -109 500 -111 501 -113 502 c 0
 -118 505 -216 630 -219 637 c 0
 -222 643 -222 644 -222 651 c 0
 -222 675 -197 697 -174 697 c 0
 -159 697 -151 690 -145 680 c 0
 -140 670 -74 528 -74 526 c 0
EndSplineSet
EndChar

StartChar: acutecomb
Encoding: 769 769 93
Width: 0
GlyphClass: 2
Flags: MW
HStem: 500 197<-151.5 14.5>
VStem: -173 212<523.5 673>
LayerCount: 2
Fore
SplineSet
-148 500 m 0
 -155 500 -173 519 -173 528 c 0
 -173 530 -172 531 -172 532 c 0
 -170 535 -25 685 -21 688 c 0
 -13 693 -7 697 4 697 c 0
 25 697 39 683 39 663 c 0
 39 653 37 646 30 638 c 0
 27 633 14 622 -50 573 c 2
 -135 507 l 2
 -143 501 -145 500 -148 500 c 0
EndSplineSet
EndChar

StartChar: uni0302
Encoding: 770 770 94
Width: 0
GlyphClass: 2
Flags: MW
HStem: 527 166
VStem: -251 268<553 554.5>
LayerCount: 2
Fore
SplineSet
17 555 m 0
 17 548 -9 527 -15 527 c 0
 -19 527 -20 528 -23 531 c 0
 -26 534 -43 556 -62 580 c 2
 -97 625 l 1
 -158 578 l 2
 -191 552 -220 530 -221 529 c 0
 -224 527 -230 527 -233 529 c 0
 -236 531 -250 550 -251 553 c 0
 -251 556 -251 559 -248 562 c 0
 -245 565 -92 691 -90 693 c 0
 -89 694 -88 694 -86 694 c 0
 -83 694 -80 693 -78 691 c 0
 -75 688 9 570 15 561 c 0
 16 559 17 557 17 555 c 0
EndSplineSet
EndChar

StartChar: tildecomb
Encoding: 771 771 95
Width: 0
GlyphClass: 2
Flags: MW
HStem: 559 56<-69 -34.5 -64 -34.5> 611 57<-165 -139.5>
VStem: -264 324<574.5 649>
LayerCount: 2
Fore
SplineSet
-245 558 m 0x60
 -250 558 -264 571 -264 578 c 0
 -264 584 -265 583 -237 609 c 0
 -201 644 -179 660 -156 666 c 0
 -152 667 -147 668 -142 668 c 0x60
 -137 668 -132 667 -128 666 c 0
 -116 663 -106 657 -87 638 c 0
 -66 618 -60 615 -47 615 c 0xa0
 -22 615 11 646 27 660 c 0
 32 665 35 668 39 668 c 0x60
 49 668 60 651 60 647 c 0
 59 643 57 641 37 621 c 0
 13 597 0 586 -16 576 c 0
 -33 564 -45 559 -60 559 c 2
 -64 559 l 2xa0
 -74 559 -76 559 -82 561 c 0
 -93 566 -99 570 -114 585 c 0
 -132 602 -136 605 -143 609 c 0
 -147 611 -151 611 -156 611 c 0
 -174 611 -196 599 -226 571 c 0
 -236 562 -241 558 -245 558 c 0x60
EndSplineSet
EndChar

StartChar: uni0304
Encoding: 772 772 96
Width: 0
GlyphClass: 2
Flags: MW
HStem: 544 45<-275 -27>
LayerCount: 2
Fore
SplineSet
-275 544 m 2
 -278 547 -282 549 -282 554 c 0
 -282 557 -281 562 -279 570 c 0
 -276 583 -274 586 -271 588 c 0
 -269 589 -235 589 -111 589 c 2
 -27 589 l 2
 59 589 51 588 53 582 c 0
 54 581 54 580 54 578 c 0
 54 574 48 551 47 550 c 0
 44 544 55 544 -118 544 c 2
 -275 544 l 2
EndSplineSet
EndChar

StartChar: uni0306
Encoding: 774 774 97
Width: 0
GlyphClass: 2
Flags: MW
HStem: 515 51<-141.5 -83 -141.5 -80> 674 20G<-218 -206.5 36 49.5>
VStem: -237 39<624.5 653> 23 39
LayerCount: 2
Fore
SplineSet
-123 515 m 0
 -194 515 -237 569 -237 641 c 0
 -237 665 -232 687 -227 691 c 0
 -224 694 -223 694 -213 694 c 0
 -200 694 -195 691 -195 684 c 0
 -195 674 -198 663 -198 650 c 0
 -198 599 -166 566 -117 566 c 0
 -49 566 5 625 23 678 c 0
 28 693 29 694 43 694 c 0
 56 694 62 693 62 684 c 0
 62 682 61 680 60 675 c 0
 40 600 -37 515 -123 515 c 0
EndSplineSet
EndChar

StartChar: uni0307
Encoding: 775 775 98
Width: 0
GlyphClass: 2
Flags: MW
HStem: 548 121<-112 -96>
VStem: -165 124<582.5 635>
LayerCount: 2
Fore
SplineSet
-116 548 m 0
 -143 548 -165 566 -165 599 c 0
 -161 637 -131 669 -93 669 c 0
 -63 669 -41 650 -41 620 c 0
 -41 586 -76 548 -116 548 c 0
EndSplineSet
EndChar

StartChar: uni0308
Encoding: 776 776 99
Width: 0
GlyphClass: 2
Flags: MW
HStem: 554 115<-200 -183.5>
VStem: -251 118<606 617> -72 117<601 617.5>
LayerCount: 2
Fore
SplineSet
-251 601 m 0
 -251 633 -220 669 -180 669 c 0
 -152 669 -136 651 -133 625 c 0
 -133 587 -164 554 -203 554 c 0
 -228 554 -251 572 -251 601 c 0
-25 554 m 0
 -50 554 -69 570 -72 599 c 0
 -72 636 -46 659 -16 667 c 0
 -11 668 -7 669 -2 669 c 0
 24 669 45 651 45 623 c 0
 45 579 4 554 -25 554 c 0
EndSplineSet
EndChar

StartChar: uni030A
Encoding: 778 778 100
Width: 0
GlyphClass: 2
Flags: MW
HStem: 542 36<-125 -114> 679 37<-82 -71>
VStem: -199 43<603.5 612.5 592.5 626.5> -41 44<648.5 665.5>
LayerCount: 2
Fore
SplineSet
-79 716 m 0
 -32 716 3 691 3 647 c 0
 3 633 1 624 -6 610 c 0
 -23 577 -57 552 -96 543 c 0
 -102 542 -110 542 -118 542 c 0
 -160 542 -185 559 -197 588 c 0
 -199 595 -199 597 -199 610 c 0
 -199 643 -187 659 -168 678 c 0
 -149 696 -122 710 -95 715 c 0
 -91 715 -85 716 -79 716 c 0
-41 655 m 0
 -41 676 -59 679 -83 679 c 0
 -113 679 -132 675 -142 656 c 0
 -147 649 -156 621 -156 604 c 0
 -156 581 -137 578 -113 578 c 0
 -78 578 -64 583 -52 605 c 0
 -46 619 -41 642 -41 655 c 0
EndSplineSet
EndChar

StartChar: uni030B
Encoding: 779 779 101
Width: 0
GlyphClass: 2
Flags: MW
HStem: 506 191<-211 -121 -123.5 -57.5>
VStem: -248 313<520.5 674>
LayerCount: 2
Fore
SplineSet
-121 697 m 0
 -103 695 -88 684 -88 664 c 0
 -88 657 -88 655 -92 648 c 0
 -98 634 -210 506 -211 506 c 0
 -213 504 -215 503 -217 503 c 0
 -220 503 -225 505 -232 509 c 0
 -245 515 -248 518 -248 523 c 0
 -248 527 -243 537 -205 602 c 0
 -157 682 -155 685 -143 692 c 0
 -139 694 -135 696 -134 696 c 0
 -132 697 -126 697 -121 697 c 0
32 697 m 0
 50 695 65 684 65 664 c 0
 65 657 65 655 61 648 c 0
 55 634 -57 506 -58 506 c 0
 -60 504 -62 503 -64 503 c 0
 -67 503 -72 505 -79 509 c 0
 -92 515 -95 518 -95 523 c 0
 -95 527 -90 537 -52 602 c 0
 -4 682 -2 685 10 692 c 0
 14 694 18 696 19 696 c 0
 21 697 27 697 32 697 c 0
EndSplineSet
EndChar

StartChar: uni030C
Encoding: 780 780 102
Width: 0
GlyphClass: 2
Flags: MW
HStem: 502 135<-202 -125>
VStem: -236 265<606.5 609.5 606.5 610.5>
LayerCount: 2
Fore
SplineSet
11 637 m 0
 18 637 29 612 29 607 c 0
 29 606 28 604 27 602 c 0
 26 599 -121 504 -125 502 c 0
 -127 502 -129 502 -131 503 c 0
 -133 504 -157 526 -184 553 c 0
 -231 597 -236 603 -236 608 c 0
 -236 613 -215 638 -206 638 c 2
 -202 637 l 2
 -201 636 -181 621 -158 603 c 2
 -116 570 l 1
 -99 576 0 637 11 637 c 0
EndSplineSet
EndChar

StartChar: Gamma
Encoding: 915 915 103
Width: 627
GlyphClass: 2
Flags: MW
HStem: 0 46<61 95 61 95 324 349.5> 440 21G<637 652 637 637> 634 46<462 487>
VStem: 159 98<56.5 62.5> 630 45 638 67
LayerCount: 2
Fore
SplineSet
61 0 m 2xf4
 58 3 54 6 54 11 c 0
 54 17 59 37 61 41 c 0
 65 46 66 46 95 46 c 0
 144 47 153 50 159 62 c 0
 159 63 299 610 299 623 c 0
 299 628 298 629 295 630 c 0
 288 632 275 633 248 634 c 0
 218 634 216 635 214 640 c 0
 211 644 212 645 215 659 c 0
 219 673 220 676 224 678 c 0
 226 680 256 680 462 680 c 2
 698 680 l 2
 701 677 705 674 705 669 c 0xf4
 705 663 676 450 675 447 c 0
 673 441 669 440 652 440 c 2
 637 440 l 2
 633 443 630 445 630 451 c 0xf8
 630 455 631 462 633 474 c 0
 636 502 638 524 638 543 c 0
 638 597 624 617 581 628 c 0
 562 633 553 633 487 634 c 0
 408 634 403 634 399 625 c 0
 396 620 257 64 257 59 c 0
 257 54 260 51 270 49 c 0
 281 48 311 46 337 46 c 0
 363 46 366 46 366 36 c 0
 366 28 362 8 359 5 c 0
 357 2 356 0 343 0 c 0
 297 0 247 2 196 2 c 0
 145 2 98 2 72 0 c 2
 61 0 l 2xf4
EndSplineSet
EndChar

StartChar: Delta
Encoding: 916 916 104
Width: 818
GlyphClass: 2
Flags: MW
HStem: 0 84<340 409> 696 20G<579 596.5>
LayerCount: 2
Fore
SplineSet
409 0 m 2
 145 0 l 2
 72 0 70 1 70 6 c 0
 70 11 552 701 557 707 c 0
 558 709 562 712 565 713 c 0
 570 716 571 716 587 716 c 0
 606 716 609 715 613 710 c 0
 614 708 635 606 683 358 c 0
 748 30 752 9 750 6 c 0
 750 4 748 2 747 2 c 0
 745 0 711 0 409 0 c 2
581 342 m 2
 531 597 l 2
 530 597 174 86 174 85 c 0
 174 84 277 84 403 84 c 0
 621 84 632 84 632 86 c 0
 632 87 609 202 581 342 c 2
EndSplineSet
EndChar

StartChar: Theta
Encoding: 920 920 105
Width: 767
GlyphClass: 2
Flags: MW
HStem: -22 38<380 392> 300 84<353 585> 668 36<540 552 552 559.5 540 599>
VStem: 149 97<198 220.5 155 325.5> 691 97<462.5 513.5 419.5 530.5>
LayerCount: 2
Fore
SplineSet
540 704 m 1
 552 704 l 2
 567 704 588 703 595 702 c 0
 712 685 788 583 788 444 c 0
 788 395 780 349 762 298 c 0
 737 224 695 157 639 100 c 0
 588 50 532 14 471 -6 c 0
 439 -17 407 -22 377 -22 c 0
 316 -22 262 0 221 41 c 0
 173 89 149 159 149 237 c 0
 149 414 261 569 376 644 c 0
 430 680 484 699 540 704 c 1
691 480 m 0
 691 581 647 668 551 668 c 0
 475 668 409 612 367 562 c 0
 316 497 280 415 258 308 c 0
 249 265 246 239 246 202 c 0
 246 108 282 43 347 22 c 0
 360 18 373 16 387 16 c 0
 439 16 496 43 545 92 c 0
 608 155 650 242 677 363 c 0
 687 406 691 445 691 480 c 0
559 276 m 0
 559 280 563 298 563 299 c 0
 563 300 516 300 458 300 c 2
 353 300 l 1
 350 286 l 2
 346 271 346 272 340 266 c 1
 325 266 l 2
 309 266 302 267 302 275 c 0
 302 280 331 410 338 415 c 2
 341 418 l 1
 356 418 l 2
 374 418 379 417 379 408 c 0
 379 404 375 386 375 385 c 0
 375 384 422 384 480 384 c 2
 585 384 l 1
 588 398 l 2
 592 413 592 412 598 418 c 1
 613 418 l 2
 629 418 636 417 636 409 c 0
 636 405 633 393 621 340 c 0
 602 269 606 275 597 266 c 1
 582 266 l 2
 564 266 559 267 559 276 c 0
EndSplineSet
EndChar

StartChar: Lambda
Encoding: 923 923 106
Width: 692
GlyphClass: 2
Flags: MW
HStem: 0 46<67 102.5 256 258 614.5 631> 696 20G<517.5 533.5>
VStem: 455 92 472 100<63 71>
LayerCount: 2
Fore
SplineSet
71 0 m 0xe0
 63 0 58 4 58 11 c 0
 58 19 65 40 68 43 c 0
 71 46 71 46 77 46 c 0
 128 46 148 66 173 104 c 0
 176 109 495 705 497 707 c 0
 498 709 501 712 504 713 c 0
 509 716 510 716 525 716 c 0
 542 716 544 715 547 711 c 0xe0
 552 704 572 77 572 65 c 0
 573 54 575 51 581 50 c 0
 588 48 606 46 623 46 c 0
 639 46 646 45 646 36 c 0
 646 34 645 31 643 23 c 0
 638 4 639 0 624 0 c 0
 593 0 564 2 514 2 c 0
 465 2 432 1 398 1 c 0
 385 1 384 2 382 7 c 0
 380 10 380 10 383 23 c 0
 388 46 389 46 406 46 c 0
 441 46 464 51 472 63 c 1xd0
 464 298 l 2
 460 427 456 534 455 536 c 2
 455 537 l 1
 451 537 216 95 214 90 c 0
 212 83 211 80 211 75 c 0
 211 61 223 51 244 47 c 0
 248 47 254 46 258 46 c 0
 263 46 264 46 267 43 c 0
 272 39 272 36 268 19 c 0
 263 3 264 6 258 0 c 1
 247 0 l 2
 216 1 175 2 143 2 c 0
 123 2 81 2 71 0 c 0xe0
EndSplineSet
EndChar

StartChar: Xi
Encoding: 926 926 107
Width: 664
GlyphClass: 2
Flags: MW
HStem: 0 81<81 140 139.5 140 139.5 334> 314 77<297 411 278 430> 600 77<468 547>
VStem: 74 65 106 41 200 51 589 52 690 36
LayerCount: 2
Fore
SplineSet
243 668 m 0xe7
 243 672 248 675 250 677 c 2
 640 677 l 2
 763 677 751 676 753 671 c 0
 754 670 754 669 754 667 c 0
 754 653 726 536 726 522 c 1
 719 515 724 514 704 514 c 0
 691 514 688 514 685 516 c 0
 680 519 679 522 683 543 c 0
 688 568 690 582 690 590 c 2
 690 597 l 1
 686 597 l 2
 670 600 626 600 468 600 c 0
 298 599 282 599 275 596 c 0
 270 593 262 575 251 539 c 0
 244 515 244 514 228 514 c 2
 224 514 l 2
 212 514 208 514 206 516 c 0
 203 517 200 522 200 525 c 0
 200 526 240 660 243 668 c 0xe7
611 438 m 2
 613 436 616 432 618 430 c 0
 618 428 613 404 599 352 c 0
 589 310 580 275 579 273 c 0
 577 268 574 267 558 267 c 0
 541 267 538 268 536 274 c 0
 534 277 534 277 538 294 c 0
 540 303 542 311 543 312 c 0
 543 314 536 314 411 314 c 2
 278 314 l 1
 277 310 l 2
 277 307 268 274 266 272 c 0
 264 268 261 267 245 267 c 0
 225 267 227 269 222 277 c 1
 241 354 l 2
 262 435 258 429 267 438 c 1
 299 438 l 1
 303 434 306 433 306 428 c 0
 306 424 304 419 302 409 c 2
 297 391 l 1
 430 391 l 1
 562 392 l 1
 567 412 l 2
 573 435 572 431 579 438 c 1
 611 438 l 2
81 0 m 2
 78 3 74 6 74 11 c 0xf7
 74 15 105 165 106 168 c 0
 112 174 109 174 127 174 c 0
 140 174 143 174 146 172 c 0
 152 168 152 167 147 143 c 0xef
 142 114 140 104 139 92 c 0xf7
 139 83 139 81 140 81 c 0
 141 80 148 80 155 79 c 0
 165 78 207 78 349 78 c 0
 533 78 547 78 561 81 c 0
 565 82 565 83 570 91 c 0
 575 103 579 115 589 145 c 0
 597 172 597 174 611 174 c 2
 617 174 l 2
 629 174 633 174 635 172 c 0
 638 171 641 166 641 163 c 0
 641 162 597 11 595 7 c 0
 594 5 592 3 591 2 c 0
 588 0 580 0 334 0 c 2
 81 0 l 2
EndSplineSet
EndChar

StartChar: Pi
Encoding: 928 928 108
Width: 743
GlyphClass: 2
Flags: MW
HStem: 0 46<61 95 61 95 309 323.5 666 680.5> 634 46<400 852 818 832.5>
VStem: 159 98<50.5 62.5> 299 100<616.5 630>
LayerCount: 2
Fore
SplineSet
61 0 m 2
 58 3 54 6 54 11 c 0
 54 17 59 37 61 41 c 0
 65 46 66 46 95 46 c 0
 144 47 153 50 159 62 c 0
 159 63 299 610 299 623 c 0
 299 628 298 629 295 630 c 0
 288 632 275 633 248 634 c 0
 218 634 216 635 214 640 c 0
 211 644 212 645 215 659 c 0
 219 673 220 676 224 678 c 0
 226 680 265 680 539 680 c 2
 852 680 l 2
 855 677 859 674 859 669 c 0
 859 663 854 643 852 639 c 0
 848 634 847 634 818 634 c 0
 769 633 760 630 754 618 c 0
 754 617 614 70 614 57 c 0
 614 44 637 47 666 46 c 0
 695 46 697 45 699 40 c 0
 702 36 701 35 698 21 c 0
 693 3 694 0 677 0 c 0
 636 0 594 2 546 2 c 0
 499 2 453 2 428 0 c 2
 418 0 l 2
 415 3 411 6 411 11 c 0
 411 17 416 37 418 41 c 0
 422 46 423 46 452 46 c 0
 501 47 510 50 516 62 c 0
 521 73 658 630 660 632 c 0
 660 634 653 634 530 634 c 2
 400 634 l 1
 399 630 l 2
 399 628 366 499 328 344 c 0
 272 120 257 61 257 57 c 0
 257 44 280 47 309 46 c 0
 338 46 340 45 342 40 c 0
 345 36 344 35 341 21 c 0
 336 3 337 0 320 0 c 0
 279 0 237 2 189 2 c 0
 142 2 96 2 71 0 c 2
 61 0 l 2
EndSplineSet
EndChar

StartChar: Sigma
Encoding: 931 931 109
Width: 716
GlyphClass: 2
Flags: MW
HStem: 0 57<185 185 185 348> 443 21G<721 737> 637 46<409 775>
VStem: 651 48 708 43<449 449> 713 69
LayerCount: 2
Fore
SplineSet
87 0 m 2xf4
 84 3 80 6 80 11 c 0
 80 12 80 14 81 15 c 0
 81 16 149 82 231 161 c 0
 314 240 381 304 381 305 c 2
 310 475 l 2
 271 569 239 647 239 648 c 0
 239 651 245 674 247 677 c 0
 247 679 249 681 251 681 c 0
 253 683 286 683 514 683 c 2
 775 683 l 2
 778 680 780 677 782 674 c 0xf4
 782 667 753 451 751 448 c 0
 748 444 745 443 729 443 c 0
 713 443 710 444 708 449 c 0
 706 452 706 454 708 471 c 0xf8
 711 494 713 513 713 529 c 0
 713 566 705 590 688 607 c 0
 670 624 637 633 580 636 c 0
 568 637 513 637 457 637 c 0
 361 637 356 637 356 635 c 0
 359 632 475 346 478 343 c 0
 478 342 478 340 477 338 c 0
 476 336 417 278 330 196 c 2
 185 57 l 1
 294 56 l 2
 440 56 467 57 506 67 c 0
 539 76 559 86 581 109 c 0
 608 136 628 171 651 235 c 0
 655 250 654 250 675 250 c 0
 687 250 691 250 693 248 c 0
 696 247 699 242 699 239 c 0
 699 238 628 41 617 9 c 0
 615 5 614 3 612 2 c 0
 609 0 603 0 348 0 c 2
 87 0 l 2xf4
EndSplineSet
EndChar

StartChar: Upsilon
Encoding: 933 933 110
Width: 767
GlyphClass: 2
Flags: MW
HStem: 0 46<234 241 228 257 515.5 540.5> 622 83<363.5 387.5>
VStem: 446 61<497.5 583> 783 49<560.5 625.5>
LayerCount: 2
Fore
SplineSet
538 0 m 0
 490 0 437 2 380 2 c 0
 324 2 271 2 241 0 c 2
 228 0 l 1
 221 7 219 7 224 27 c 0
 228 41 228 40 234 46 c 1
 257 46 l 2
 295 46 327 48 336 52 c 0
 342 53 347 57 349 62 c 0
 352 65 434 377 445 461 c 0
 446 471 446 489 446 506 c 0
 446 523 446 539 445 546 c 0
 436 595 414 622 361 622 c 0
 345 622 343 622 335 620 c 0
 299 609 273 584 261 552 c 0
 258 542 255 538 249 536 c 0
 244 535 221 535 218 536 c 2
 214 540 l 2
 214 541 213 542 213 543 c 0
 213 545 214 548 215 553 c 0
 230 604 264 652 305 680 c 0
 327 696 348 705 379 705 c 0
 477 705 507 635 507 531 c 0
 507 517 506 503 505 492 c 0
 505 487 504 482 504 482 c 2
 505 482 507 489 511 497 c 0
 520 519 537 553 548 571 c 0
 597 653 655 697 722 704 c 0
 727 705 733 705 738 705 c 0
 800 705 832 657 832 594 c 0
 832 577 830 544 820 538 c 0
 817 536 815 535 802 535 c 0
 783 535 778 536 781 548 c 0
 782 553 783 558 783 563 c 0
 783 600 754 623 716 623 c 0
 679 623 650 607 626 583 c 0
 578 535 543 441 521 354 c 0
 520 350 448 66 448 59 c 0
 448 54 452 51 461 50 c 0
 472 48 502 46 529 46 c 0
 553 46 555 45 558 39 c 0
 559 36 559 34 556 22 c 0
 552 6 551 4 547 1 c 0
 545 1 543 0 538 0 c 0
EndSplineSet
EndChar

StartChar: Phi
Encoding: 934 934 111
Width: 716
GlyphClass: 2
Flags: MW
HStem: 0 46<211 218 205 234 486.5 512> 151 37<444 451.5> 637 46<381.5 387 380.5 400 650 658.5>
VStem: 159 101<252.5 314> 467 71 626 102<381.5 385 366 427.5>
LayerCount: 2
Fore
SplineSet
467 624 m 0
 467 636 447 636 400 637 c 0
 363 637 361 638 359 643 c 0
 356 647 357 648 360 662 c 0
 364 676 365 679 369 682 c 0
 371 683 374 683 387 683 c 0
 430 681 481 681 532 681 c 0
 583 681 628 683 672 683 c 0
 682 683 689 680 689 672 c 0
 689 669 683 646 681 643 c 0
 679 638 677 637 640 637 c 0
 595 636 578 634 570 630 c 0
 566 628 560 622 558 617 c 0
 556 612 538 538 538 533 c 0
 538 532 539 532 541 532 c 0
 546 532 572 527 584 524 c 0
 646 507 692 474 714 431 c 0
 724 412 728 396 728 374 c 0
 728 358 726 346 721 331 c 0
 712 303 697 280 673 256 c 0
 630 211 568 178 498 160 c 0
 483 157 451 151 445 151 c 0
 443 151 442 150 441 149 c 0
 439 145 419 62 419 59 c 0
 419 54 422 51 432 50 c 0
 443 48 473 46 500 46 c 0
 524 46 526 45 529 39 c 0
 530 36 530 34 527 22 c 0
 523 6 522 4 518 1 c 0
 516 1 515 0 510 0 c 0
 463 0 410 2 355 2 c 0
 301 2 248 2 218 0 c 2
 205 0 l 1
 198 7 196 7 201 27 c 0
 205 41 205 40 211 46 c 1
 234 46 l 2
 272 46 304 48 313 52 c 0
 319 53 324 57 326 62 c 0
 331 67 349 150 349 150 c 2
 349 151 348 151 346 151 c 0
 341 151 318 155 303 159 c 0
 235 176 182 218 165 269 c 0
 160 284 159 292 159 309 c 0
 159 319 159 326 160 332 c 0
 170 383 206 431 264 468 c 0
 307 499 374 524 435 531 c 1
 446 533 l 1
 457 577 l 2
 464 607 467 618 467 624 c 0
436 494 m 2
 436 495 433 495 419 492 c 0
 376 483 345 467 319 442 c 0
 305 427 298 417 288 397 c 0
 271 363 260 317 260 284 c 0
 260 221 302 200 359 188 c 0
 360 189 436 494 436 494 c 2
626 398 m 0
 626 457 590 482 539 493 c 0
 533 494 528 495 528 495 c 2
 527 495 450 189 451 188 c 0
 452 188 468 191 479 194 c 0
 536 208 576 239 598 285 c 0
 615 319 626 365 626 398 c 0
EndSplineSet
EndChar

StartChar: Psi
Encoding: 936 936 112
Width: 767
GlyphClass: 2
Flags: MW
HStem: 0 46<237 244 231 260 512.5 538> 509 37<798.5 808 808 812.5> 637 46<407.5 413 406.5 426 676 684.5>
VStem: 225 88<281.5 325.5 281.5 339.5> 245 93<462.5 498.5> 376 69 387 91<192 193.5>
LayerCount: 2
Fore
SplineSet
207 520 m 0xe8
 207 532 213 541 218 546 c 1
 257 546 l 2
 300 546 305 546 314 540 c 0
 332 532 338 512 338 485 c 0xe8
 338 463 335 443 327 408 c 0
 317 371 313 339 313 312 c 0
 313 251 336 210 379 193 c 0
 384 192 386 191 387 192 c 0
 387 193 411 290 441 408 c 0
 479 561 494 623 494 626 c 0
 493 627 492 629 491 630 c 0
 487 634 469 636 426 637 c 0
 389 637 387 638 385 643 c 0
 382 647 383 648 386 662 c 0
 390 676 391 679 395 682 c 0
 397 683 400 683 413 683 c 0
 456 681 507 681 558 681 c 0
 609 681 654 683 698 683 c 0
 708 683 715 680 715 672 c 0
 715 669 709 646 707 643 c 0
 705 638 703 637 666 637 c 0
 621 636 604 634 596 630 c 0
 592 628 586 622 584 617 c 0
 583 613 478 194 478 193 c 1xf2
 479 193 483 195 489 197 c 0
 573 228 620 310 646 415 c 0
 664 482 682 517 708 535 c 0
 724 545 729 546 777 546 c 2
 808 546 l 2
 818 546 820 545 823 539 c 0
 823 538 824 537 824 536 c 0
 824 534 823 531 822 525 c 0
 818 512 816 509 809 509 c 0
 788 509 775 495 765 480 c 0
 754 464 744 439 735 406 c 0
 722 357 705 319 681 283 c 0
 634 211 565 166 481 153 c 2
 467 151 l 1
 456 106 l 2
 450 82 445 61 445 59 c 0
 445 54 449 51 458 50 c 0
 469 48 499 46 526 46 c 0
 550 46 552 45 555 39 c 0
 556 36 556 34 553 22 c 0
 549 6 548 4 544 1 c 0
 542 1 541 0 536 0 c 0
 489 0 436 2 381 2 c 0
 327 2 274 2 244 0 c 2
 231 0 l 1
 224 7 222 7 227 27 c 0
 231 41 231 40 237 46 c 1
 260 46 l 2
 298 46 330 48 339 52 c 0
 345 53 350 57 352 62 c 0
 355 65 376 150 376 151 c 2
 376 151 374 152 371 152 c 0
 362 153 341 159 331 163 c 0
 267 187 225 236 225 323 c 0xf4
 225 356 228 375 236 410 c 0
 242 437 245 455 245 470 c 0
 245 475 244 479 244 483 c 0
 240 501 235 507 220 509 c 0
 211 510 207 513 207 520 c 0xe8
EndSplineSet
EndChar

StartChar: Omega
Encoding: 937 937 113
Width: 716
GlyphClass: 2
Flags: MW
HStem: 0 75<107 252 521 530> 668 37<522 568>
VStem: 100 52 108 45<165 165> 183 103<380 394 300 477> 252 42<75 169.5 84 169.5> 654 105<510 512.5 501 574>
LayerCount: 2
Fore
SplineSet
107 0 m 2xc6
 103 3 100 5 100 12 c 0xe6
 100 27 107 163 108 165 c 0
 110 171 114 172 131 172 c 2
 146 172 l 1
 150 169 l 1
 153 165 l 1xd2
 152 141 l 1
 152 116 l 2xe2
 152 98 152 84 153 82 c 0
 155 77 169 75 217 75 c 2
 252 75 l 1
 252 84 l 2xd6
 252 145 208 253 194 311 c 0
 187 339 183 367 183 393 c 0
 183 561 345 688 496 703 c 0
 502 704 508 704 510 704 c 0
 513 705 518 705 525 705 c 0
 649 705 733 647 756 546 c 0
 758 536 759 520 759 505 c 0
 759 497 759 489 758 483 c 0
 752 430 725 371 676 306 c 0
 661 285 647 268 613 227 c 0
 564 169 546 146 527 117 c 0
 517 102 503 78 503 76 c 0
 503 75 511 75 521 75 c 2
 555 75 l 2
 579 75 599 76 606 87 c 0
 611 95 625 123 636 147 c 0
 644 164 646 169 649 170 c 0
 651 172 654 172 667 172 c 2
 682 172 l 2
 685 170 689 166 689 162 c 0
 689 157 620 3 617 2 c 0
 614 0 609 0 530 0 c 2
 447 0 l 1
 439 6 438 8 444 28 c 0
 461 85 482 131 542 236 c 0
 581 305 598 338 612 369 c 0
 641 432 654 486 654 534 c 0
 654 614 609 668 527 668 c 0
 517 668 506 667 500 666 c 0
 464 659 429 643 399 618 c 0
 325 558 286 458 286 330 c 0xca
 286 270 294 202 294 137 c 0
 294 96 294 85 293 72 c 0
 290 44 283 12 280 6 c 0
 277 0 281 0 190 0 c 2
 107 0 l 2xc6
EndSplineSet
EndChar

StartChar: endash
Encoding: 8211 8211 114
Width: 511
GlyphClass: 2
Flags: MW
HStem: 248 37<98 442>
LayerCount: 2
Fore
SplineSet
98 248 m 2
 94 251 91 254 91 259 c 0
 91 267 97 282 100 284 c 0
 102 285 148 285 324 285 c 2
 442 285 l 2
 562 285 550 284 552 278 c 0
 553 276 554 276 554 274 c 0
 554 270 549 255 548 254 c 0
 545 248 562 248 319 248 c 2
 98 248 l 2
EndSplineSet
EndChar

StartChar: emdash
Encoding: 8212 8212 115
Width: 1022
GlyphClass: 2
Flags: MW
HStem: 248 36
LayerCount: 2
Fore
SplineSet
124 248 m 2
 120 251 117 254 117 259 c 0
 117 267 123 282 126 284 c 0
 128 285 220 285 579 285 c 0
 972 285 1030 285 1033 284 c 0
 1034 283 1037 280 1037 278 c 0
 1038 276 1038 276 1038 274 c 0
 1038 264 1032 251 1029 250 c 0
 1026 248 976 248 575 248 c 2
 124 248 l 2
EndSplineSet
EndChar

StartChar: quoteleft
Encoding: 8216 8216 116
Width: 307
GlyphClass: 2
Flags: MW
HStem: 674 20G<343 347>
VStem: 197 129<435.5 468.5 435.5 474>
LayerCount: 2
Fore
SplineSet
249 379 m 0
 213 379 197 408 197 448 c 0
 197 500 226 570 271 627 c 0
 286 645 323 681 337 691 c 0
 340 693 342 694 344 694 c 0
 350 694 362 676 362 671 c 0
 362 667 360 665 354 660 c 0
 315 630 277 582 256 537 c 0
 251 525 239 492 240 491 c 0
 241 491 243 492 245 493 c 0
 254 498 264 500 275 500 c 0
 305 500 326 483 326 454 c 0
 326 417 292 379 249 379 c 0
EndSplineSet
EndChar

StartChar: quoteright
Encoding: 8217 8217 117
Width: 307
GlyphClass: 2
Flags: MW
HStem: 573 121<304.5 310.5>
VStem: 250 127<615 624 624 633 615 640>
LayerCount: 2
Fore
SplineSet
300 573 m 0
 270 573 250 590 250 620 c 0
 250 660 284 694 325 694 c 0
 356 694 377 667 377 633 c 2
 377 624 l 2
 377 606 377 602 375 591 c 0
 362 534 332 481 300 441 c 0
 283 420 252 391 238 382 c 0
 235 380 233 379 231 379 c 0
 226 379 213 395 213 401 c 0
 213 405 217 409 225 416 c 0
 268 451 304 498 323 547 c 0
 328 558 335 581 335 582 c 0
 335 583 321 573 300 573 c 0
EndSplineSet
EndChar

StartChar: quotedblleft
Encoding: 8220 8220 118
Width: 514
GlyphClass: 2
Flags: MW
HStem: 379 112<286 286.5 286 316.5 483 483.5> 674 20G<390 393.5 587 590.5>
VStem: 243 129<435.5 468.5 435.5 474> 440 129<435.5 468.5 435.5 474>
LayerCount: 2
Fore
SplineSet
295 379 m 0
 259 379 243 408 243 448 c 0
 243 500 272 570 317 627 c 0
 332 645 369 681 383 691 c 0
 386 693 389 694 391 694 c 0
 396 694 407 679 409 674 c 0
 410 670 407 666 400 660 c 0
 361 630 323 582 302 537 c 0
 297 525 285 492 286 491 c 0
 287 491 289 492 291 493 c 0
 300 498 310 500 321 500 c 0
 351 500 372 483 372 454 c 0
 372 417 338 379 295 379 c 0
492 379 m 0
 456 379 440 408 440 448 c 0
 440 500 469 570 514 627 c 0
 529 645 566 681 580 691 c 0
 583 693 586 694 588 694 c 0
 593 694 606 677 606 672 c 0
 606 668 603 665 597 660 c 0
 558 630 520 582 499 537 c 0
 494 525 482 492 483 491 c 0
 484 491 486 492 488 493 c 0
 497 498 507 500 518 500 c 0
 548 500 569 483 569 454 c 0
 569 417 535 379 492 379 c 0
EndSplineSet
EndChar

StartChar: quotedblright
Encoding: 8221 8221 119
Width: 514
GlyphClass: 2
Flags: MW
HStem: 573 121<268.5 274.5 465.5 471.5>
VStem: 214 127<615 624 624 633 615 640> 411 127<615 624 624 633 615 640>
LayerCount: 2
Fore
SplineSet
264 573 m 0
 234 573 214 590 214 620 c 0
 214 660 248 694 289 694 c 0
 320 694 341 667 341 633 c 2
 341 624 l 2
 341 606 341 602 339 591 c 0
 324 526 293 473 253 429 c 0
 240 414 218 393 204 383 c 0
 201 381 198 379 196 379 c 0
 191 379 176 394 176 401 c 0
 176 405 180 409 189 416 c 0
 232 451 268 498 287 547 c 0
 292 559 299 581 299 582 c 0
 299 583 285 573 264 573 c 0
461 573 m 0
 431 573 411 590 411 620 c 0
 411 660 445 694 486 694 c 0
 517 694 538 667 538 633 c 2
 538 624 l 2
 538 606 538 602 536 591 c 0
 521 526 490 473 450 429 c 0
 437 414 415 393 401 383 c 0
 398 381 395 379 393 379 c 0
 388 379 373 394 373 401 c 0
 373 405 377 409 386 416 c 0
 429 451 465 498 484 547 c 0
 489 559 496 581 496 582 c 0
 496 583 482 573 461 573 c 0
EndSplineSet
EndChar

StartChar: uni210F
Encoding: 8463 8463 120
Width: 540
GlyphClass: 2
Flags: MW
HStem: -13 57<395 431.5> 386 55<337.5 360> 457 69 586 49 617 71 675 20G<284 292>
VStem: 42 96 318 94<53 86> 386 99<318.5 341 313.5 352.5>
LayerCount: 2
Fore
SplineSet
150 475 m 2xf680
 143 475 88 457 82 457 c 0
 70 457 54 473 54 487 c 0
 54 489 54 490 55 492 c 0
 58 497 60 504 64 506 c 0
 66 510 86 517 118 526 c 0
 144 535 166 544 169 546 c 2
 169 546 173 559 175 575 c 0
 179 589 181 598 181 604 c 0
 181 612 177 614 166 617 c 0
 160 617 146 619 135 619 c 0
 113 619 109 621 109 630 c 0
 109 639 120 677 122 681 c 0
 124 684 146 686 202 688 c 0xea80
 242 692 282 695 286 695 c 0
 298 695 304 690 304 684 c 0
 304 681 298 657 291 628 c 2
 278 577 l 1
 314 588 350 600 386 612 c 0
 442 628 465 635 476 635 c 0
 490 635 499 621 499 607 c 0
 499 599 496 591 489 586 c 0
 486 584 433 566 373 546 c 2
 262 512 l 2
 262 510 233 399 233 397 c 0
 233 395 238 399 244 404 c 0
 277 428 316 441 357 441 c 0
 418 441 463 414 478 375 c 0
 482 362 485 349 485 333 c 0xf680
 485 294 470 240 435 141 c 0
 418 94 412 70 412 58 c 0
 412 48 417 44 426 44 c 0
 437 44 453 52 466 68 c 0
 482 84 491 104 500 130 c 2
 509 152 l 1
 531 152 l 1
 550 152 l 2
 559 152 562 151 562 144 c 0
 562 138 559 127 551 108 c 0
 526 46 486 4 438 -10 c 0
 430 -12 423 -13 415 -13 c 0
 375 -13 335 10 322 44 c 0
 318 52 318 59 318 77 c 0xf7
 318 95 318 97 335 148 c 0
 369 240 386 300 386 337 c 0
 386 368 374 386 346 386 c 0
 329 386 306 380 286 370 c 0
 262 359 226 324 211 292 c 0
 206 286 193 237 173 157 c 0
 155 88 140 28 138 21 c 0
 135 17 129 8 122 4 c 0
 110 -7 96 -12 83 -12 c 0
 61 -12 42 2 42 26 c 0
 42 32 62 121 98 257 c 2
 151 475 l 1
 150 475 l 2xf680
EndSplineSet
EndChar

StartChar: uniEFFD
Encoding: 61437 61437 121
Width: 700
GlyphClass: 2
Flags: MW
HStem: 0 100<0 100 0 100 600 700>
VStem: 0 100<0 100 0 100> 600 100<0 100 0 100>
LayerCount: 2
Fore
SplineSet
0 0 m 1
 0 100 l 1
 100 100 l 1
 100 0 l 1
 0 0 l 1
600 0 m 1
 600 100 l 1
 700 100 l 1
 700 0 l 1
 600 0 l 1
EndSplineSet
EndChar

StartChar: uniEFFE
Encoding: 61438 61438 122
Width: 500
GlyphClass: 2
Flags: MW
HStem: 0 100<0 100 0 100 400 500>
VStem: 0 100<0 100 0 100>
LayerCount: 2
Fore
SplineSet
0 0 m 1
 0 100 l 1
 100 100 l 1
 100 0 l 1
 0 0 l 1
400 0 m 1
 400 100 l 1
 500 100 l 1
 500 0 l 1
 400 0 l 1
EndSplineSet
EndChar

StartChar: uniEFFF
Encoding: 61439 61439 123
Width: 100
GlyphClass: 2
Flags: MW
HStem: 0 100<0 100 0 100>
VStem: 0 100<0 100 0 100>
LayerCount: 2
Fore
SplineSet
0 0 m 1
 0 100 l 1
 100 100 l 1
 100 0 l 1
 0 0 l 1
EndSplineSet
EndChar
